<svg width="455" height="462" viewBox="0 0 455 462" fill="none" xmlns="http://www.w3.org/2000/svg">
<path d="M345.6 0.700005L316.35 15.37C315.279 15.8254 314.365 16.5859 313.723 17.5568C313.081 18.5277 312.739 19.6661 312.74 20.83V34.51C312.714 46.9464 316.34 59.1167 323.17 69.51C328.44 77.51 335.43 87.8 347.06 93.67H352.3C365.25 89.67 374.91 79.2 380.81 70.2C387.638 59.8061 391.265 47.6362 391.24 35.2V20.83C391.24 19.6675 390.899 18.5305 390.259 17.5599C389.619 16.5894 388.708 15.828 387.64 15.37L354.32 1.17C352.83 0.540004 347.08 0.070005 345.6 0.700005Z" fill="#E0E0E0"/>
<path d="M344.42 1.17002L311.1 15.37C310.029 15.8254 309.115 16.5859 308.473 17.5568C307.831 18.5277 307.489 19.6661 307.49 20.83V34.51C307.491 47.1838 311.251 59.5725 318.294 70.1087C325.338 80.6448 335.349 88.8549 347.06 93.7C360 89.7 369.66 79.23 375.57 70.23C382.4 59.8256 386.026 47.6458 386 35.2V20.83C386 19.6661 385.658 18.5277 385.016 17.5568C384.374 16.5859 383.461 15.8254 382.39 15.37L349.07 1.17002C348.334 0.860607 347.543 0.701233 346.745 0.701233C345.946 0.701233 345.156 0.860607 344.42 1.17002Z" fill="#F5F5F5"/>
<path d="M385.89 31.49C385.935 31.6968 385.955 31.9083 385.95 32.12C385.95 32.59 386 33.19 386.03 33.93C386.06 34.67 386.11 35.68 386.03 36.8C385.95 37.92 386.03 39.2 385.85 40.6C385.67 42 385.62 43.6 385.33 45.19C385.2 46.01 385.1 46.86 384.93 47.73C384.76 48.6 384.55 49.48 384.36 50.39C383.438 54.3382 382.149 58.1916 380.51 61.9C378.825 65.5902 376.818 69.124 374.51 72.46C373.4 73.96 372.37 75.46 371.27 76.65C370.73 77.28 370.27 77.92 369.72 78.48L368.2 80.09C367.25 81.09 366.28 81.97 365.47 82.75C364.66 83.53 363.92 84.14 363.31 84.63L362 85.77C361.844 85.9122 361.673 86.0364 361.49 86.14C361.623 85.974 361.774 85.8231 361.94 85.69L363.29 84.48C363.88 83.97 364.6 83.33 365.38 82.48C366.16 81.63 367.12 80.85 368.04 79.79L369.53 78.16C370.04 77.6 370.53 76.96 371.05 76.33C372.13 75.08 373.13 73.63 374.22 72.13C376.484 68.8092 378.458 65.2996 380.12 61.64C381.74 57.9588 383.029 54.1403 383.97 50.23L384.56 47.59C384.74 46.73 384.85 45.88 384.99 45.07C385.29 43.45 385.41 41.92 385.56 40.52C385.71 39.12 385.73 37.86 385.81 36.74C385.89 35.62 385.88 34.67 385.88 33.88C385.88 33.09 385.88 32.54 385.88 32.07C385.863 31.8768 385.867 31.6825 385.89 31.49Z" fill="#E0E0E0"/>
<path d="M344.26 61.23L325.15 46.04L330.45 39.37L343.27 49.56L361.99 28.61L368.34 34.29L344.26 61.23Z" fill="white"/>
<path d="M434.54 75.56H430.92V55.87C430.92 53.6422 430.035 51.5056 428.46 49.9303C426.884 48.355 424.748 47.47 422.52 47.47C420.292 47.47 418.156 48.355 416.58 49.9303C415.005 51.5056 414.12 53.6422 414.12 55.87V75.56H410.5V55.87C410.5 52.6874 411.764 49.6351 414.015 47.3847C416.265 45.1343 419.317 43.87 422.5 43.87C425.683 43.87 428.735 45.1343 430.985 47.3847C433.236 49.6351 434.5 52.6874 434.5 55.87L434.54 75.56Z" fill="#EBEBEB"/>
<path d="M435.63 62.2H409.4C407.699 62.2 406.32 63.579 406.32 65.28V84.51C406.32 86.2111 407.699 87.59 409.4 87.59H435.63C437.331 87.59 438.71 86.2111 438.71 84.51V65.28C438.71 63.579 437.331 62.2 435.63 62.2Z" fill="#EBEBEB"/>
<path d="M425 75.55C425.322 75.223 425.576 74.8355 425.747 74.4099C425.919 73.9843 426.005 73.5289 426 73.07C426.005 72.4047 425.823 71.7512 425.476 71.1834C425.13 70.6156 424.631 70.156 424.037 69.8565C423.443 69.557 422.777 69.4295 422.114 69.4884C421.451 69.5473 420.818 69.7903 420.286 70.1899C419.754 70.5895 419.344 71.1298 419.103 71.7499C418.862 72.37 418.798 73.0452 418.92 73.6993C419.043 74.3534 419.345 74.9604 419.794 75.4517C420.242 75.9431 420.819 76.2992 421.46 76.48L420.7 79.86H424.09L423.41 76.48C424.002 76.311 424.539 75.9904 424.97 75.55" fill="#FAFAFA"/>
<path d="M23.4297 362.94C19.5458 360.51 15.157 359.001 10.5997 358.53C8.49965 358.31 6.20965 358.37 4.52965 359.64C4.33461 359.751 4.17317 359.913 4.06231 360.109C3.95145 360.304 3.89526 360.525 3.89965 360.75C4.0021 361.067 4.21503 361.337 4.49965 361.51C7.22383 363.454 10.4281 364.614 13.7651 364.867C17.1021 365.119 20.4444 364.452 23.4297 362.94Z" fill="#E0E0E0"/>
<path d="M23.0999 362.58C20.1293 360.396 17.3554 357.957 14.8099 355.29C12.259 352.603 10.4679 349.287 9.61985 345.68C9.45096 345.146 9.40015 344.581 9.47094 344.025C9.54173 343.469 9.73243 342.935 10.0299 342.46C16.6299 347.62 21.8199 354.3 23.0999 362.58Z" fill="#E0E0E0"/>
<path d="M23.3598 362.89C22.7512 359.28 22.8054 355.59 23.5198 352C24.2542 348.381 26.3205 345.169 29.3098 343C30.4498 345.67 29.9598 348.75 29.1598 351.53C27.9165 355.85 25.9741 359.938 23.4098 363.63" fill="#E0E0E0"/>
<path d="M29.8397 374.5C25.9527 375.128 22.357 376.949 19.5497 379.71C16.5969 382.393 14.5407 385.919 13.6597 389.81C17.5197 389.57 20.7897 386.81 23.1597 383.81C25.5297 380.81 27.1597 377.42 29.7897 374.57" fill="#E0E0E0"/>
<path d="M31.2496 376.35C29.7015 372.422 29.1586 368.169 29.6703 363.978C30.182 359.787 31.7319 355.79 34.1796 352.35C36.4196 360.35 35.5896 369.35 31.2496 376.35Z" fill="#E0E0E0"/>
<path d="M39.7998 386.54C36.206 386.322 32.6273 387.164 29.5076 388.961C26.3878 390.758 23.8643 393.432 22.2498 396.65C22.0398 397.08 21.8398 397.65 22.1398 398.02C22.2902 398.168 22.4748 398.276 22.6771 398.336C22.8795 398.395 23.0934 398.403 23.2998 398.36C26.7598 398.14 29.8198 396.06 32.3498 393.69C34.8798 391.32 37.0898 388.58 39.8798 386.53" fill="#E0E0E0"/>
<path d="M39.53 386C37.6875 380.068 37.573 373.734 39.2 367.74C39.85 365.39 40.93 362.92 43.1 361.82C43.187 361.761 43.2852 361.721 43.3885 361.702C43.4917 361.683 43.5978 361.686 43.7 361.71C43.8755 361.803 44.0081 361.961 44.07 362.15C44.8035 363.791 45.1196 365.587 44.99 367.38C44.8618 369.169 44.5875 370.945 44.17 372.69C43.49 375.93 43.17 379.41 41.34 382.21C40.9222 382.884 40.5449 383.582 40.21 384.3C39.88 385.01 39.88 385.3 39.57 385.82" fill="#E0E0E0"/>
<path d="M62.1799 389.36C61.4186 386.027 61.3937 382.568 62.107 379.224C62.8203 375.88 64.2546 372.732 66.3099 370C66.5999 369.61 66.99 369.2 67.48 369.24C68.22 369.31 68.4099 370.3 68.3799 371.04C68.0732 377.604 65.9246 383.95 62.1799 389.35" fill="#E0E0E0"/>
<path d="M64.2197 390.76C68.1825 391.695 72.3009 391.759 76.2908 390.948C80.2807 390.136 84.047 388.469 87.3297 386.06C83.4631 384.115 79.041 383.575 74.8197 384.53C70.6397 385.53 66.8197 387.35 64.2197 390.76Z" fill="#E0E0E0"/>
<path d="M65.9399 386.51C70.2899 379.43 78.6199 374.81 86.9399 374.38C85.9399 377.76 83.2099 380.38 80.0799 381.97C76.8713 383.409 73.4793 384.399 69.9999 384.91C68.6599 385.17 66.8199 385.46 65.9999 386.51" fill="#E0E0E0"/>
<path d="M62.6097 365.88C63.9287 361.891 64.8269 357.776 65.2897 353.6C65.7545 349.398 64.9018 345.156 62.8497 341.46C58.7897 349.31 58.3797 358.46 62.4897 366.31" fill="#E0E0E0"/>
<path d="M76.27 359C81.02 350.38 90.7 343.49 100.49 342.52C96.71 351.93 86.41 359.2 76.27 359Z" fill="#E0E0E0"/>
<path d="M73.29 360.67C80.36 361.75 86.39 366.27 93 369.01C94.3882 369.674 95.9249 369.967 97.46 369.86C98.1732 369.851 98.8665 369.623 99.4464 369.208C100.026 368.793 100.465 368.21 100.704 367.538C100.942 366.866 100.969 366.136 100.781 365.448C100.592 364.76 100.198 364.147 99.65 363.69C98.7144 362.814 97.6127 362.134 96.41 361.69C89.21 358.69 81.48 358.62 73.9 360.44" fill="#E0E0E0"/>
<path d="M69.1899 365.63C70.7899 366.09 71.3399 366.92 72.6099 368C76.9484 371.686 82.0831 374.315 87.6099 375.68C88.1799 375.82 88.9299 375.88 89.2199 375.37C89.5099 374.86 89.1499 374.37 88.8299 373.97C86.4364 371.154 83.327 369.036 79.8299 367.84C76.3799 366.55 73.3899 365 69.2699 365.34" fill="#E0E0E0"/>
<path d="M64.5698 335.66C67.4721 338.335 70.9021 340.374 74.6392 341.645C78.3764 342.916 82.3381 343.391 86.2698 343.04C86.6351 343.052 86.9916 342.927 87.2698 342.69C87.8198 342.09 87.1598 341.17 86.5298 340.69C80.1498 335.69 72.4198 333.69 64.5898 335.69" fill="#E0E0E0"/>
<path d="M70.0498 333.65C73.8908 330.825 78.3454 328.949 83.0499 328.174C87.7544 327.398 92.5756 327.747 97.1198 329.19C93.5766 332.47 89.033 334.464 84.2198 334.85C79.4627 335.287 74.6657 334.881 70.0498 333.65Z" fill="#E0E0E0"/>
<path d="M67.8699 319.88C67.2499 313.51 67.6499 308.49 67.2099 302.09C67.2099 301.58 67.0699 300.97 66.5899 300.78C65.9199 300.53 65.3699 301.34 65.1499 302.02C64.2218 304.985 63.9834 308.123 64.4531 311.194C64.9228 314.265 66.088 317.188 67.8599 319.74" fill="#E0E0E0"/>
<path d="M67.4097 320.58C71.5861 317.901 75.1863 314.417 77.9997 310.33C80.0797 307.48 81.8397 304.07 81.3697 300.57C79.9026 300.609 78.4617 300.967 77.1474 301.62C75.833 302.273 74.6769 303.204 73.7597 304.35C71.9435 306.655 70.6226 309.311 69.8797 312.15C69.0397 314.95 68.4497 317.83 67.4497 320.58" fill="#E0E0E0"/>
<path d="M77.7799 317.7C87.2895 314.191 96.0949 309.009 103.78 302.4C100.68 301.15 97.1299 301.9 94.0299 303.15C86.9923 305.816 81.1779 310.972 77.6899 317.64" fill="#E0E0E0"/>
<path d="M70.3296 324.07C75.1074 324.748 79.9554 324.772 84.7396 324.14C89.4096 323.36 93.8296 321.5 98.1896 319.67C98.5711 319.556 98.8981 319.307 99.1096 318.97C99.1754 318.767 99.1791 318.549 99.1203 318.345C99.0615 318.14 98.9429 317.957 98.7796 317.82C98.4419 317.555 98.0488 317.371 97.6296 317.28C92.8796 315.96 87.7596 316.58 83.0896 318.15C78.6417 319.673 74.3651 321.658 70.3296 324.07Z" fill="#E0E0E0"/>
<path d="M42.9997 335.88C39.7297 329.28 39.9997 321.58 42.7697 314.78C44.7697 317.78 44.9997 321.66 44.6397 325.27C44.2797 328.88 43.1797 332.58 43.0997 336.2" fill="#E0E0E0"/>
<path d="M29.9098 329.29C25.8179 329.235 21.7598 330.036 17.9955 331.641C14.2311 333.246 10.8435 335.62 8.0498 338.61C12.1824 339.106 16.3681 338.332 20.0498 336.39C23.6947 334.455 27.1325 332.153 30.3098 329.52" fill="#E0E0E0"/>
<path d="M21.1298 326.35C17.1298 326.03 13.2998 325.54 9.45982 326.71C7.52237 327.255 5.72531 328.212 4.19116 329.515C2.657 330.818 1.42182 332.436 0.569824 334.26C4.33605 334.562 8.11426 333.847 11.5098 332.19C14.8853 330.536 18.1049 328.581 21.1298 326.35Z" fill="#E0E0E0"/>
<path d="M34.13 326.49C30.54 324.14 26.85 321.74 22.67 320.76C18.49 319.78 13.67 320.51 10.73 323.66C14.11 325.66 18.22 325.88 22.15 325.88C26.08 325.88 30.88 325.83 34.58 327.14" fill="#E0E0E0"/>
<path d="M34.1497 326.68C28.0097 320.68 25.6897 309.82 28.1497 301.58C32.9946 309 35.1152 317.871 34.1497 326.68Z" fill="#E0E0E0"/>
<path d="M51 309.6C52.16 306.9 53 304.08 54 301.34C54.9467 298.56 56.4014 295.979 58.29 293.73C60.2033 291.45 62.9366 290.013 65.9 289.73C64.9534 293.884 63.1522 297.795 60.611 301.214C58.0698 304.633 54.8443 307.486 51.14 309.59" fill="#E0E0E0"/>
<path d="M47.9996 313.16C46.0896 310.52 43.8696 306.94 41.2696 304.97C38.6696 303 35.2696 301.81 32.1196 302.56C33.7623 305.438 36.0525 307.894 38.8087 309.734C41.5649 311.574 44.7116 312.747 47.9996 313.16Z" fill="#E0E0E0"/>
<path d="M48.5901 309.82C47.2289 306.672 46.2227 303.381 45.5901 300.01C44.9617 296.598 45.5044 293.075 47.1301 290.01C50.5001 296.38 51.5901 303.22 48.8001 309.87" fill="#E0E0E0"/>
<path d="M51.0698 290C52.9798 283.69 58.7598 279 65.0098 276.9C65.7817 276.583 66.6193 276.459 67.4498 276.54C67.8649 276.583 68.2579 276.748 68.5785 277.016C68.8991 277.283 69.1328 277.639 69.2498 278.04C69.4798 279.11 68.5898 280.04 67.7498 280.79C62.8715 284.959 57.1966 288.092 51.0698 290Z" fill="#E0E0E0"/>
<path d="M51.14 284.87C51.38 280.79 51.63 276.66 52.96 272.8C54.29 268.94 56.84 265.33 60.55 263.64C61.18 267.75 59.37 271.84 57.18 275.38C54.99 278.92 52.35 282.26 51.04 286.21" fill="#E0E0E0"/>
<path d="M50.9996 287.67C49.4196 283.07 49.2596 277.22 46.4996 273.21C44.5696 270.41 41.4996 268.5 39.8296 265.53C38.8268 268.378 38.9666 271.503 40.2196 274.25C41.4734 276.966 43.2002 279.438 45.3196 281.55C47.3196 283.73 49.0996 285.37 50.9996 287.67Z" fill="#E0E0E0"/>
<path d="M51.0698 423.22C50.9498 423.22 50.8398 392.52 50.8298 354.65C50.8198 316.78 50.9198 286.07 51.0398 286.07C51.1598 286.07 51.2698 316.76 51.2798 354.65C51.2898 392.54 51.1898 423.22 51.0698 423.22Z" fill="#E0E0E0"/>
<path d="M77.9 331.24C77.533 331.426 77.1476 331.574 76.75 331.68L73.57 332.75C70.89 333.66 67.21 334.98 63.22 336.62C59.23 338.26 55.53 339.69 53.41 341.53C52.5509 342.234 51.8664 343.127 51.41 344.14C51.1 344.86 51.05 345.3 51.01 345.3C50.97 345.3 51.01 345.18 51.01 344.97C51.0608 344.667 51.1377 344.369 51.24 344.08C51.6404 343.009 52.3001 342.054 53.16 341.3C54.4426 340.216 55.878 339.326 57.42 338.66C59.12 337.86 61.01 337.03 63.01 336.21C67.01 334.57 70.72 333.29 73.43 332.45C74.79 332.03 75.89 331.72 76.66 331.51C77.0639 331.381 77.4791 331.291 77.9 331.24Z" fill="#E0E0E0"/>
<path d="M86.6996 309.64C86.6057 309.768 86.4947 309.882 86.3696 309.98L85.3696 310.91L81.6896 314.25L69.4496 325.15C64.6696 329.41 60.5396 333.47 57.6796 336.53C56.2396 338.06 55.1096 339.33 54.3396 340.21L53.4496 341.21C53.3567 341.336 53.2455 341.447 53.1196 341.54C53.1942 341.4 53.2848 341.269 53.3896 341.15C53.5696 340.9 53.8396 340.53 54.2096 340.08C54.9396 339.16 56.0396 337.86 57.4496 336.3C61.1433 332.262 65.0488 328.423 69.1496 324.8C73.9496 320.56 78.3096 316.74 81.4796 314C83.0396 312.66 84.3196 311.57 85.2496 310.76L86.2496 309.9C86.387 309.793 86.5384 309.706 86.6996 309.64Z" fill="#E0E0E0"/>
<path d="M64.3098 329.48C64.1798 329.42 65.1798 327.12 66.1798 324.2C67.1798 321.28 67.6498 318.83 67.7798 318.85C67.6761 320.73 67.2779 322.583 66.5998 324.34C66.1703 325.586 65.6729 326.808 65.1098 328C64.9089 328.526 64.6399 329.024 64.3098 329.48Z" fill="#E0E0E0"/>
<path d="M51.0996 348.06C50.8193 347.808 50.5708 347.522 50.3596 347.21L48.4696 344.79C46.8896 342.74 44.6996 339.91 42.2396 336.79C39.7796 333.67 37.5296 330.92 35.8896 328.91L33.9996 326.55C33.7466 326.27 33.5221 325.965 33.3296 325.64C33.6215 325.88 33.8894 326.148 34.1296 326.44C34.6196 326.97 35.3196 327.76 36.1296 328.74C37.8296 330.74 40.1296 333.44 42.5896 336.54C45.0496 339.64 47.1996 342.54 48.7196 344.6C49.4896 345.6 50.0896 346.51 50.4996 347.11C50.7314 347.405 50.9324 347.724 51.0996 348.06Z" fill="#E0E0E0"/>
<path d="M45.2099 340.51C44.0243 339.198 43.1795 337.615 42.7499 335.9C42.2821 334.394 42.0923 332.814 42.19 331.24H42.3899C42.3626 331.431 42.2981 331.614 42.1999 331.78C42.1999 331.78 42.1999 331.57 42.1999 331.21H42.4C42.4934 332.744 42.755 334.263 43.1799 335.74C43.7408 337.377 44.4192 338.971 45.2099 340.51Z" fill="#E0E0E0"/>
<path d="M37.6201 331C37.0881 330.6 36.5108 330.264 35.9001 330C34.3522 329.533 32.7222 329.404 31.1201 329.62C29.4976 329.738 27.8883 329.996 26.3101 330.39C25.6542 330.592 24.9862 330.752 24.3101 330.87C24.8939 330.51 25.5322 330.247 26.2001 330.09C27.7833 329.6 29.4171 329.291 31.0701 329.17C32.7288 328.95 34.4162 329.132 35.9901 329.7C36.6676 329.931 37.2437 330.391 37.6201 331Z" fill="#E0E0E0"/>
<path d="M35.8196 328.64C35.8196 328.71 34.8196 328.24 33.1796 327.64C28.906 326.186 24.3328 325.842 19.8896 326.64C18.1896 326.94 17.1696 327.26 17.1396 327.19C17.3547 327.052 17.5913 326.95 17.8396 326.89C18.4936 326.661 19.1617 326.474 19.8396 326.33C22.0743 325.84 24.3684 325.678 26.6497 325.85C28.9269 326.028 31.1666 326.533 33.2996 327.35C33.9438 327.597 34.5717 327.884 35.1796 328.21C35.4138 328.32 35.6296 328.465 35.8196 328.64Z" fill="#E0E0E0"/>
<path d="M50.9996 318.85C50.2166 316.667 49.5753 314.436 49.0796 312.17C48.4336 309.941 47.9325 307.673 47.5796 305.38C48.3633 307.564 49.0079 309.795 49.5096 312.06C50.1497 314.289 50.6474 316.557 50.9996 318.85Z" fill="#E0E0E0"/>
<path d="M51.1597 318.85C50.5449 317.468 49.8331 316.131 49.0296 314.85C48.1292 313.637 47.0735 312.548 45.8896 311.61C46.336 311.724 46.75 311.94 47.0996 312.24C47.9909 312.888 48.7653 313.682 49.3896 314.59C50.345 315.829 50.9557 317.299 51.1597 318.85Z" fill="#E0E0E0"/>
<path d="M51.0697 406.85C51.0697 406.85 50.9297 406.11 50.5797 404.85C50.0895 403.015 49.4196 401.233 48.5797 399.53C45.6231 393.976 41.9666 388.824 37.6997 384.2C35.2697 381.42 32.9097 378.8 30.9097 376.29C29.1094 374.087 27.4845 371.747 26.0497 369.29C25.0848 367.63 24.2651 365.891 23.5997 364.09C23.3697 363.45 23.2097 362.95 23.1197 362.61C23.0613 362.437 23.0178 362.26 22.9897 362.08C22.9897 362.08 23.2497 362.78 23.7597 364.03C24.4863 365.791 25.342 367.495 26.3197 369.13C27.785 371.548 29.4226 373.857 31.2197 376.04C33.2197 378.52 35.5997 381.12 38.0297 383.9C42.3277 388.552 45.9743 393.767 48.8697 399.4C49.7055 401.129 50.3526 402.943 50.7997 404.81C50.9182 405.318 51.0083 405.832 51.0697 406.35C51.0851 406.516 51.0851 406.684 51.0697 406.85Z" fill="#E0E0E0"/>
<path d="M75.32 379.47C74.9092 379.728 74.4853 379.965 74.05 380.18C72.8977 380.824 71.7947 381.553 70.75 382.36C69.2023 383.557 67.7543 384.878 66.42 386.31C64.9 387.91 63.34 389.77 61.74 391.77C58.55 395.77 55.56 399.33 53.74 402.16C52.83 403.56 52.17 404.74 51.74 405.57C51.5345 406.011 51.3007 406.439 51.04 406.85C51.04 406.85 51.04 406.72 51.16 406.49C51.28 406.26 51.38 405.92 51.58 405.49C52.1476 404.288 52.7888 403.123 53.5 402C55.9291 398.353 58.5633 394.848 61.39 391.5C62.99 389.5 64.58 387.64 66.13 386.03C67.4939 384.604 68.9758 383.296 70.56 382.12C71.6406 381.311 72.7919 380.602 74 380C74.3243 379.834 74.6583 379.687 75 379.56C75.2067 379.48 75.3134 379.45 75.32 379.47Z" fill="#E0E0E0"/>
<path d="M75.7899 388.35C74.9037 388.544 74.0047 388.675 73.0999 388.74C70.942 388.961 68.8094 389.383 66.7299 390C64.673 390.668 62.7453 391.683 61.0299 393C59.7199 394 59.0999 394.85 59.0299 394.81C58.9599 394.77 59.1299 394.56 59.4199 394.19C59.8375 393.668 60.3066 393.189 60.8199 392.76C62.5212 391.339 64.4802 390.26 66.5899 389.58C68.6954 388.952 70.8665 388.569 73.0599 388.44C73.9652 388.326 74.879 388.296 75.7899 388.35Z" fill="#E0E0E0"/>
<path d="M59.8197 393.82C59.6797 393.74 60.8897 391.89 61.8197 389.4C62.7497 386.91 62.9097 384.69 63.0597 384.72C63.1451 385.196 63.1451 385.684 63.0597 386.16C62.9233 387.318 62.6618 388.458 62.2797 389.56C61.8684 390.648 61.3456 391.69 60.7197 392.67C60.4872 393.102 60.1828 393.491 59.8197 393.82Z" fill="#E0E0E0"/>
<path d="M83.1699 355.61C83.0395 355.709 82.8944 355.786 82.7399 355.84L81.4799 356.41C80.9199 356.65 80.2499 356.95 79.4799 357.35C78.7099 357.75 77.8299 358.15 76.9099 358.7L75.4499 359.53C74.9399 359.83 74.4499 360.17 73.8999 360.53C72.8199 361.18 71.7399 361.99 70.5799 362.81C68.1289 364.67 65.8161 366.705 63.6599 368.9C61.5439 371.119 59.5952 373.493 57.8299 376C57.0399 377.19 56.2699 378.3 55.6499 379.4C55.3399 379.94 55.0099 380.46 54.7299 380.98L53.9999 382.48C53.4799 383.42 53.1099 384.32 52.7399 385.09C52.3699 385.86 52.0899 386.54 51.8699 387.09C51.6499 387.64 51.4799 388.03 51.3399 388.37C51.285 388.523 51.2146 388.671 51.1299 388.81C51.1489 388.648 51.1928 388.489 51.2599 388.34L51.7099 387.03C51.9099 386.46 52.1599 385.76 52.5099 384.98C52.8599 384.2 53.2099 383.28 53.7199 382.33C53.9599 381.84 54.2199 381.33 54.4799 380.81C54.7399 380.29 55.0699 379.81 55.3899 379.21C55.9999 378.09 56.7599 376.97 57.5399 375.77C61.0499 370.638 65.4011 366.134 70.4099 362.45C71.5799 361.63 72.6799 360.83 73.7699 360.19C74.3199 359.86 74.8299 359.51 75.3399 359.19L76.8299 358.37C77.7699 357.84 78.6699 357.45 79.4399 357.08C80.0909 356.755 80.7585 356.465 81.4399 356.21L82.7399 355.71C82.8796 355.663 83.0236 355.629 83.1699 355.61Z" fill="#E0E0E0"/>
<path d="M64 368.47C64.1584 367.854 64.5086 367.304 65 366.9C66.183 365.871 67.6921 365.293 69.26 365.27C70.7928 365.263 72.3118 365.559 73.73 366.14C74.3289 366.333 74.8978 366.609 75.42 366.96C74.8079 366.845 74.2084 366.671 73.63 366.44C72.2276 365.955 70.7539 365.708 69.27 365.71C67.7988 365.742 66.3762 366.243 65.21 367.14C64.7721 367.551 64.3675 367.995 64 368.47Z" fill="#E0E0E0"/>
<path d="M61.1099 371.43C61.6791 370.177 62.0857 368.856 62.3199 367.5C62.4008 366.127 62.3101 364.75 62.0499 363.4C62.3072 363.737 62.4787 364.132 62.5499 364.55C63.067 366.527 62.8207 368.626 61.8599 370.43C61.4799 371.11 61.1499 371.46 61.1099 371.43Z" fill="#E0E0E0"/>
<path d="M29.8599 411.25C30.5199 422.99 34.0599 434.92 39.4999 446.99H63.1499C68.3399 435.04 71.6299 423.13 72.2099 411.25H29.8599Z" fill="#E0E0E0"/>
<path d="M68.3796 430.24C68.3796 430.36 60.5896 430.46 50.9896 430.46C41.3896 430.46 33.5996 430.36 33.5996 430.24C33.5996 430.12 41.3796 430 50.9996 430C60.6196 430 68.3796 430.12 68.3796 430.24Z" fill="#FAFAFA"/>
<path d="M67.8497 434.49C67.8497 434.61 60.5497 434.71 51.5497 434.71C42.5497 434.71 35.2397 434.61 35.2397 434.49C35.2397 434.37 42.5397 434.27 51.5497 434.27C60.5597 434.27 67.8497 434.37 67.8497 434.49Z" fill="#FAFAFA"/>
<path d="M39.8797 419C40.173 422.624 40.173 426.266 39.8797 429.89C39.5863 426.266 39.5863 422.624 39.8797 419Z" fill="#FAFAFA"/>
<path d="M52.5496 419C52.843 422.754 52.843 426.526 52.5496 430.28C52.2563 426.526 52.2563 422.754 52.5496 419Z" fill="#FAFAFA"/>
<path d="M64.45 418.86C64.7433 422.691 64.7433 426.539 64.45 430.37C64.1566 426.539 64.1566 422.691 64.45 418.86Z" fill="#FAFAFA"/>
<path d="M71.4597 419C71.4597 419.12 62.3297 419.22 51.0697 419.22C39.8097 419.22 30.6597 419.12 30.6597 419C30.6597 418.88 39.7997 418.78 51.0697 418.78C62.3397 418.78 71.4597 418.83 71.4597 419Z" fill="#FAFAFA"/>
<path d="M438.39 309.53C440.554 308.574 442.391 307.004 443.672 305.016C444.954 303.027 445.624 300.706 445.6 298.34C445.6 291.66 440.6 286.22 434.31 286.2C428.02 286.18 422.94 291.56 422.92 298.2C422.875 300.584 423.536 302.929 424.821 304.938C426.106 306.947 427.957 308.531 430.14 309.49C412.69 312.12 413.48 331.08 413.48 331.08L454.75 331.27C454.75 331.27 455.69 312.14 438.39 309.53Z" fill="#EBEBEB"/>
<path d="M252.87 33.81C254.39 33.5115 255.791 32.778 256.902 31.6987C258.013 30.6194 258.787 29.2407 259.13 27.73C259.415 26.7605 259.499 25.7433 259.377 24.7402C259.256 23.7372 258.931 22.7694 258.423 21.8959C257.916 21.0224 257.235 20.2615 256.424 19.6595C255.612 19.0576 254.687 18.6272 253.704 18.3946C252.72 18.1621 251.7 18.1322 250.705 18.3069C249.71 18.4816 248.761 18.8571 247.915 19.4106C247.07 19.9641 246.346 20.684 245.788 21.5263C245.231 22.3686 244.85 23.3158 244.67 24.31C244.285 25.8261 244.359 27.4224 244.883 28.8964C245.406 30.3705 246.355 31.656 247.61 32.59C236.08 31.68 233.79 43.9 233.79 43.9L260.09 50.13C260.09 50.13 263.53 38 252.87 33.81Z" fill="#EBEBEB"/>
<path d="M439.52 135.61C440.781 134.821 441.783 133.68 442.402 132.327C443.02 130.974 443.228 129.47 443 128C442.925 127.027 442.651 126.08 442.195 125.217C441.74 124.354 441.112 123.593 440.351 122.982C439.59 122.371 438.712 121.923 437.771 121.665C436.829 121.406 435.845 121.344 434.879 121.481C433.913 121.618 432.985 121.951 432.153 122.461C431.32 122.97 430.601 123.645 430.04 124.444C429.479 125.242 429.087 126.147 428.889 127.103C428.692 128.058 428.692 129.044 428.89 130C429.074 131.488 429.696 132.888 430.677 134.022C431.658 135.156 432.954 135.973 434.4 136.37C423.79 139.58 425.98 151.3 425.98 151.3L451.66 147.71C451.66 147.71 450.51 135.68 439.52 135.61Z" fill="#F5F5F5"/>
<path d="M27.4799 139.24L13.6099 128.21L17.4499 123.37L26.7599 130.76L40.3399 115.57L44.9499 119.69L27.4799 139.24Z" fill="#F5F5F5"/>
<path d="M447.66 447.34C447.66 447.49 347.51 447.6 224.01 447.6C100.51 447.6 0.339844 447.49 0.339844 447.34C0.339844 447.19 100.46 447.08 224.01 447.08C347.56 447.08 447.66 447.2 447.66 447.34Z" fill="#263238"/>
<path d="M46.3998 155.21L15.7298 170.6C14.6171 171.085 13.6709 171.885 13.008 172.901C12.345 173.918 11.9945 175.106 11.9998 176.32V190.67C11.9645 203.723 15.7653 216.499 22.9298 227.41C28.4598 235.83 35.7898 246.59 47.9798 252.74H53.4798C67.0598 248.6 77.1898 237.57 83.3798 228.13C90.5472 217.22 94.3514 204.444 94.3198 191.39V176.32C94.3182 175.101 93.9592 173.91 93.2874 172.893C92.6155 171.877 91.6602 171.079 90.5398 170.6L55.5498 155.71C53.9998 155.05 47.9998 154.55 46.3998 155.21Z" fill="#0B8FAC"/>
<path opacity="0.3" d="M46.3998 155.21L15.7298 170.6C14.6171 171.085 13.6709 171.885 13.008 172.901C12.345 173.918 11.9945 175.106 11.9998 176.32V190.67C11.9645 203.723 15.7653 216.499 22.9298 227.41C28.4598 235.83 35.7898 246.59 47.9798 252.74H53.4798C67.0598 248.6 77.1898 237.57 83.3798 228.13C90.5472 217.22 94.3514 204.444 94.3198 191.39V176.32C94.3182 175.101 93.9592 173.91 93.2874 172.893C92.6155 171.877 91.6602 171.079 90.5398 170.6L55.5498 155.71C53.9998 155.05 47.9998 154.55 46.3998 155.21Z" fill="black"/>
<path d="M45.1699 155.71L10.2199 170.6C9.09949 171.079 8.1442 171.877 7.47232 172.893C6.80045 173.91 6.44151 175.101 6.43994 176.32V190.67C6.44072 203.96 10.3832 216.951 17.7685 227.999C25.1539 239.048 35.6503 247.658 47.9299 252.74C61.4999 248.6 71.6299 237.57 77.8299 228.13C84.9974 217.22 88.8016 204.444 88.7699 191.39V176.32C88.7692 175.103 88.4117 173.912 87.7417 172.895C87.0717 171.879 86.1185 171.081 84.9999 170.6L49.9999 155.71C49.2353 155.389 48.4143 155.224 47.5849 155.224C46.7556 155.224 45.9346 155.389 45.1699 155.71Z" fill="#0B8FAC"/>
<path opacity="0.3" d="M55.8984 220.797C67.695 216.222 73.5487 202.949 68.9731 191.153C64.3976 179.356 51.1253 173.503 39.3288 178.078C27.5322 182.654 21.6785 195.926 26.2541 207.723C30.8296 219.519 44.1019 225.373 55.8984 220.797Z" fill="black"/>
<path d="M47.5998 200.71C52.8521 200.71 57.1098 196.452 57.1098 191.2C57.1098 185.948 52.8521 181.69 47.5998 181.69C42.3476 181.69 38.0898 185.948 38.0898 191.2C38.0898 196.452 42.3476 200.71 47.5998 200.71Z" fill="white"/>
<path d="M30.2397 214.37C31.7692 211.17 34.1829 208.475 37.1955 206.604C40.2081 204.733 43.6936 203.763 47.2397 203.81C50.876 203.811 54.4449 204.792 57.5704 206.65C60.696 208.509 63.2625 211.176 64.9997 214.37C64.9997 214.37 59.3897 222.67 46.9997 222.37C43.7887 222.357 40.6204 221.633 37.7225 220.25C34.8246 218.866 32.2692 216.858 30.2397 214.37Z" fill="white"/>
<path d="M70.5097 199.44C70.4983 199.317 70.4983 199.193 70.5097 199.07C70.5097 198.8 70.5097 198.44 70.4197 197.99C70.4197 197.75 70.4197 197.48 70.4197 197.19C70.4197 196.9 70.3197 196.58 70.2697 196.19C70.1655 195.396 70.0051 194.611 69.7897 193.84C69.2461 191.704 68.3866 189.662 67.2397 187.78C65.7355 185.283 63.7667 183.097 61.4397 181.34C58.6286 179.202 55.3535 177.757 51.8797 177.12C47.8916 176.386 43.7797 176.731 39.9697 178.12C38.9387 178.478 37.9359 178.913 36.9697 179.42C36.0036 179.949 35.0748 180.544 34.1897 181.2C33.2895 181.877 32.4313 182.609 31.6197 183.39C30.8243 184.215 30.0827 185.09 29.3997 186.01C27.9998 187.906 26.9096 190.012 26.1697 192.25C24.6096 196.889 24.6096 201.911 26.1697 206.55C26.9052 208.79 27.9957 210.897 29.3997 212.79C30.0827 213.713 30.8242 214.592 31.6197 215.42C32.4288 216.201 33.2872 216.929 34.1897 217.6C35.9259 218.924 37.8595 219.967 39.9197 220.69C43.7297 222.079 47.8416 222.424 51.8297 221.69C54.9971 221.094 58.0027 219.835 60.6497 217.996C63.2968 216.157 65.5254 213.78 67.1897 211.02C68.3238 209.151 69.17 207.121 69.6997 205C69.9142 204.225 70.0746 203.437 70.1797 202.64C70.1797 202.3 70.2997 201.98 70.3297 201.64C70.3597 201.3 70.3297 201.08 70.3297 200.84L70.4197 199.75C70.4095 199.627 70.4095 199.503 70.4197 199.38C70.4305 199.503 70.4305 199.627 70.4197 199.75C70.4197 200.03 70.4197 200.39 70.4197 200.85C70.4197 201.09 70.4197 201.36 70.4197 201.65C70.4197 201.94 70.3397 202.27 70.2897 202.65C70.2098 203.458 70.0626 204.257 69.8497 205.04C69.3424 207.206 68.5024 209.281 67.3597 211.19C64.6423 215.829 60.3853 219.37 55.3286 221.197C50.2718 223.024 44.7349 223.021 39.6797 221.19C38.6504 220.82 37.648 220.379 36.6797 219.87C35.6954 219.316 34.7529 218.691 33.8597 218C32.9296 217.318 32.0475 216.573 31.2197 215.77C30.4237 214.939 29.6822 214.057 28.9997 213.13C27.5602 211.194 26.4394 209.04 25.6797 206.75C24.9203 204.386 24.5192 201.922 24.4897 199.44C24.5175 196.957 24.9222 194.492 25.6897 192.13C26.4418 189.839 27.5596 187.684 28.9997 185.75C29.7028 184.81 30.4643 183.915 31.2797 183.07C32.1045 182.268 32.9832 181.523 33.9097 180.84C34.7964 180.163 35.7286 179.549 36.6997 179C37.6678 178.488 38.6702 178.044 39.6997 177.67C43.5885 176.261 47.7829 175.916 51.8497 176.67C55.0756 177.29 58.1318 178.592 60.8135 180.49C63.4953 182.387 65.7408 184.835 67.3997 187.67C68.5426 189.583 69.3826 191.661 69.8897 193.83C70.1025 194.61 70.2497 195.406 70.3297 196.21C70.3297 196.56 70.4397 196.88 70.4597 197.21V198.02C70.4597 198.48 70.4597 198.84 70.4597 199.11C70.4856 199.218 70.5023 199.329 70.5097 199.44Z" fill="#263238"/>
<path d="M88.6501 187.5C88.6967 187.72 88.7202 187.945 88.7201 188.17C88.7201 188.65 88.7201 189.28 88.8001 190.07C88.8801 190.86 88.8801 191.9 88.8001 193.07C88.8001 193.66 88.8001 194.28 88.8001 194.95C88.8001 195.62 88.8001 196.32 88.6701 197.05C88.5301 198.52 88.4301 200.14 88.1201 201.86C87.9901 202.72 87.8801 203.61 87.7001 204.52C87.5201 205.43 87.3001 206.36 87.1001 207.32C86.1384 211.454 84.7995 215.491 83.1001 219.38C81.3439 223.249 79.2456 226.954 76.8301 230.45C75.6701 232.02 74.6001 233.54 73.4401 234.85C72.8801 235.51 72.3601 236.18 71.8101 236.77L70.2201 238.45C69.2201 239.56 68.2201 240.45 67.3601 241.24C66.6405 241.948 65.8827 242.615 65.0901 243.24L63.6101 244.44C63.4477 244.586 63.27 244.713 63.0801 244.82C63.2223 244.653 63.3796 244.499 63.5501 244.36L64.9601 243.09C65.5901 242.55 66.3401 241.88 67.1601 241.09C67.9801 240.3 68.9801 239.37 69.9501 238.26L71.5101 236.56C72.0501 235.97 72.5101 235.3 73.1101 234.64C74.2401 233.33 75.2901 231.81 76.4401 230.23C78.8137 226.749 80.8814 223.068 82.6201 219.23C84.31 215.358 85.6487 211.342 86.6201 207.23L87.2401 204.45C87.4201 203.55 87.5401 202.66 87.6901 201.81C88.0101 200.11 88.1301 198.5 88.2901 197.04C88.3801 196.31 88.4401 195.61 88.4601 194.95L88.5501 193.08C88.6401 191.91 88.6201 190.9 88.6201 190.08C88.6201 189.26 88.6201 188.67 88.6201 188.18C88.613 187.953 88.623 187.726 88.6501 187.5Z" fill="#263238"/>
<path d="M331.81 447.34H95.3502C93.801 447.314 92.2721 446.983 90.851 446.365C89.4298 445.748 88.1443 444.857 87.0679 443.742C85.9915 442.628 85.1453 441.312 84.5778 439.87C84.0102 438.429 83.7324 436.889 83.7602 435.34V73.92C83.7324 72.3708 84.0102 70.8313 84.5778 69.3896C85.1453 67.9479 85.9915 66.6321 87.0679 65.5177C88.1443 64.4032 89.4298 63.5118 90.851 62.8945C92.2721 62.2772 93.801 61.946 95.3502 61.92H331.81C333.359 61.946 334.887 62.2772 336.308 62.8947C337.729 63.5121 339.013 64.4036 340.089 65.5183C341.165 66.6329 342.01 67.9487 342.576 69.3904C343.143 70.8321 343.419 72.3713 343.39 73.92V435.36C343.417 436.907 343.138 438.444 342.57 439.883C342.003 441.323 341.157 442.636 340.082 443.749C339.007 444.861 337.723 445.751 336.303 446.367C334.884 446.983 333.357 447.314 331.81 447.34Z" fill="#263238"/>
<path d="M218.11 429.81C218.148 431.993 217.535 434.138 216.349 435.972C215.164 437.806 213.459 439.245 211.453 440.107C209.447 440.969 207.229 441.214 205.083 440.811C202.937 440.409 200.959 439.376 199.402 437.846C197.844 436.315 196.778 434.356 196.338 432.217C195.897 430.078 196.104 427.857 196.931 425.836C197.757 423.814 199.167 422.085 200.98 420.868C202.792 419.651 204.927 419 207.11 419C210.002 418.976 212.785 420.101 214.848 422.128C216.91 424.155 218.084 426.918 218.11 429.81Z" fill="#455A64"/>
<path d="M240.18 82.3H187.18C186.686 82.2921 186.199 82.1871 185.746 81.9909C185.292 81.7947 184.882 81.5111 184.539 81.1564C184.195 80.8017 183.925 80.3827 183.743 79.9235C183.561 79.4643 183.472 78.9738 183.48 78.48C183.464 77.4818 183.844 76.5179 184.538 75.7999C185.232 75.0819 186.182 74.6684 187.18 74.65H240.18C241.178 74.6684 242.128 75.0819 242.822 75.7999C243.516 76.5179 243.896 77.4818 243.88 78.48C243.888 78.9738 243.799 79.4643 243.617 79.9235C243.435 80.3827 243.165 80.8017 242.821 81.1564C242.478 81.5111 242.068 81.7947 241.614 81.9909C241.161 82.1871 240.674 82.2921 240.18 82.3Z" fill="#455A64"/>
<path d="M334.99 89.43H91.73V411.29H334.99V89.43Z" fill="white"/>
<path d="M334.99 89.43H324.61V411.29H334.99V89.43Z" fill="#F5F5F5"/>
<path d="M329.79 205.07C328.933 205.067 328.111 204.725 327.505 204.117C326.9 203.51 326.56 202.688 326.56 201.83V130.64C326.56 129.782 326.9 128.96 327.505 128.352C328.111 127.745 328.933 127.403 329.79 127.4C330.649 127.4 331.473 127.741 332.081 128.349C332.689 128.957 333.03 129.781 333.03 130.64V201.83C333.03 202.689 332.689 203.513 332.081 204.121C331.473 204.729 330.649 205.07 329.79 205.07Z" fill="#E0E0E0"/>
<path d="M303.26 162.68H123.9C122.532 162.68 121.219 162.136 120.252 161.169C119.284 160.201 118.74 158.889 118.74 157.52C118.74 156.151 119.284 154.839 120.252 153.871C121.219 152.904 122.532 152.36 123.9 152.36H303.26C304.629 152.36 305.941 152.904 306.909 153.871C307.877 154.839 308.42 156.151 308.42 157.52C308.42 158.889 307.877 160.201 306.909 161.169C305.941 162.136 304.629 162.68 303.26 162.68Z" fill="#E0E0E0"/>
<path d="M275.67 125H162.84C161.472 125 160.159 124.456 159.192 123.489C158.224 122.521 157.68 121.209 157.68 119.84C157.68 118.471 158.224 117.159 159.192 116.191C160.159 115.224 161.472 114.68 162.84 114.68H275.67C277.039 114.68 278.351 115.224 279.319 116.191C280.287 117.159 280.83 118.471 280.83 119.84C280.83 121.209 280.287 122.521 279.319 123.489C278.351 124.456 277.039 125 275.67 125Z" fill="#0B8FAC"/>
<path d="M277.79 183.45H149.37C148.001 183.45 146.689 182.906 145.721 181.939C144.754 180.971 144.21 179.659 144.21 178.29C144.21 176.921 144.754 175.609 145.721 174.641C146.689 173.674 148.001 173.13 149.37 173.13H277.79C278.468 173.13 279.139 173.263 279.765 173.523C280.391 173.782 280.959 174.162 281.439 174.641C281.918 175.12 282.298 175.689 282.557 176.315C282.816 176.941 282.95 177.612 282.95 178.29C282.95 178.968 282.816 179.639 282.557 180.265C282.298 180.891 281.918 181.46 281.439 181.939C280.959 182.418 280.391 182.798 279.765 183.057C279.139 183.317 278.468 183.45 277.79 183.45Z" fill="#E0E0E0"/>
<path d="M219.81 274H121C119.632 274 118.319 273.456 117.352 272.489C116.384 271.521 115.84 270.209 115.84 268.84C115.84 268.162 115.974 267.491 116.233 266.865C116.492 266.239 116.873 265.67 117.352 265.191C117.831 264.712 118.4 264.332 119.026 264.073C119.652 263.813 120.323 263.68 121 263.68H219.81C220.488 263.68 221.159 263.813 221.785 264.073C222.411 264.332 222.98 264.712 223.459 265.191C223.938 265.67 224.318 266.239 224.578 266.865C224.837 267.491 224.97 268.162 224.97 268.84C224.97 270.209 224.427 271.521 223.459 272.489C222.491 273.456 221.179 274 219.81 274Z" fill="#E0E0E0"/>
<path d="M300.36 252.37H121C119.632 252.37 118.319 251.826 117.352 250.859C116.384 249.891 115.84 248.579 115.84 247.21C115.84 246.533 115.974 245.862 116.233 245.237C116.493 244.611 116.873 244.043 117.352 243.565C117.832 243.087 118.4 242.707 119.026 242.449C119.652 242.191 120.323 242.059 121 242.06H300.36C301.037 242.059 301.708 242.191 302.334 242.449C302.96 242.707 303.529 243.087 304.008 243.565C304.488 244.043 304.868 244.611 305.127 245.237C305.387 245.862 305.52 246.533 305.52 247.21C305.52 247.888 305.387 248.559 305.128 249.185C304.868 249.811 304.488 250.38 304.009 250.859C303.53 251.338 302.961 251.718 302.335 251.977C301.709 252.237 301.038 252.37 300.36 252.37Z" fill="#E0E0E0"/>
<path d="M300.36 311.65H143.37C140.52 311.65 138.21 313.96 138.21 316.81C138.21 319.66 140.52 321.97 143.37 321.97H300.36C303.21 321.97 305.52 319.66 305.52 316.81C305.52 313.96 303.21 311.65 300.36 311.65Z" fill="#E0E0E0"/>
<path d="M300.36 344H121C119.632 344 118.319 343.456 117.352 342.489C116.384 341.521 115.84 340.209 115.84 338.84C115.846 337.475 116.392 336.168 117.359 335.204C118.326 334.241 119.635 333.7 121 333.7H300.36C301.038 333.7 301.709 333.833 302.335 334.093C302.961 334.352 303.53 334.732 304.009 335.211C304.488 335.69 304.868 336.259 305.128 336.885C305.387 337.511 305.52 338.182 305.52 338.86C305.515 340.225 304.969 341.532 304.002 342.496C303.035 343.459 301.725 344 300.36 344Z" fill="#E0E0E0"/>
<path d="M300.36 366.42H121C119.632 366.42 118.319 365.876 117.352 364.909C116.384 363.941 115.84 362.628 115.84 361.26C115.84 359.891 116.384 358.579 117.352 357.611C118.319 356.644 119.632 356.1 121 356.1H300.36C301.038 356.1 301.709 356.233 302.335 356.493C302.961 356.752 303.53 357.132 304.009 357.611C304.488 358.09 304.868 358.659 305.128 359.285C305.387 359.911 305.52 360.582 305.52 361.26C305.52 362.628 304.977 363.941 304.009 364.909C303.041 365.876 301.729 366.42 300.36 366.42Z" fill="#E0E0E0"/>
<path d="M129.07 316.81C129.07 317.871 128.755 318.907 128.166 319.789C127.577 320.671 126.739 321.358 125.759 321.763C124.779 322.168 123.701 322.274 122.661 322.066C121.621 321.859 120.666 321.347 119.916 320.597C119.167 319.846 118.658 318.89 118.452 317.85C118.246 316.809 118.354 315.731 118.761 314.752C119.168 313.773 119.857 312.936 120.74 312.348C121.622 311.761 122.66 311.448 123.72 311.45C125.14 311.453 126.501 312.019 127.504 313.023C128.507 314.028 129.07 315.39 129.07 316.81Z" fill="#0B8FAC"/>
<path d="M300.36 232.22H143.36C141.992 232.22 140.679 231.676 139.712 230.709C138.744 229.741 138.2 228.428 138.2 227.06C138.2 225.691 138.744 224.379 139.712 223.411C140.679 222.444 141.992 221.9 143.36 221.9H300.36C301.038 221.9 301.709 222.033 302.335 222.293C302.961 222.552 303.53 222.932 304.009 223.411C304.488 223.89 304.868 224.459 305.127 225.085C305.387 225.711 305.52 226.382 305.52 227.06C305.52 227.738 305.387 228.409 305.127 229.035C304.868 229.661 304.488 230.229 304.009 230.709C303.53 231.188 302.961 231.568 302.335 231.827C301.709 232.087 301.038 232.22 300.36 232.22Z" fill="#E0E0E0"/>
<path d="M123.72 232.42C126.681 232.42 129.08 230.02 129.08 227.06C129.08 224.1 126.681 221.7 123.72 221.7C120.76 221.7 118.36 224.1 118.36 227.06C118.36 230.02 120.76 232.42 123.72 232.42Z" fill="#0B8FAC"/>
<path d="M295.35 399.23H255.1C252.92 399.23 250.829 398.364 249.288 396.822C247.746 395.281 246.88 393.19 246.88 391.01C246.88 388.83 247.746 386.739 249.288 385.198C250.829 383.656 252.92 382.79 255.1 382.79H295.35C297.53 382.79 299.621 383.656 301.163 385.198C302.704 386.739 303.57 388.83 303.57 391.01C303.57 393.19 302.704 395.281 301.163 396.822C299.621 398.364 297.53 399.23 295.35 399.23Z" fill="#0B8FAC"/>
<path d="M87.9997 11.35L46.2797 32.28C44.7531 32.929 43.451 34.0126 42.5353 35.3959C41.6196 36.7791 41.1308 38.4011 41.1297 40.06V59.58C41.0804 77.3451 46.2549 94.7326 56.0097 109.58C63.5297 121 73.4897 135.64 90.0798 144H97.5597C116.02 138.37 129.8 123.36 138.23 110.53C147.985 95.6826 153.159 78.2951 153.11 60.53V40.06C153.112 38.4056 152.629 36.7868 151.721 35.404C150.813 34.0213 149.519 32.9351 148 32.28L100.44 12C98.3198 11.13 90.1197 10.45 87.9997 11.35Z" fill="#0B8FAC"/>
<path opacity="0.3" d="M87.9997 11.35L46.2797 32.28C44.7531 32.929 43.451 34.0126 42.5353 35.3959C41.6196 36.7791 41.1308 38.4011 41.1297 40.06V59.58C41.0804 77.3451 46.2549 94.7326 56.0097 109.58C63.5297 121 73.4897 135.64 90.0798 144H97.5597C116.02 138.37 129.8 123.36 138.23 110.53C147.985 95.6826 153.159 78.2951 153.11 60.53V40.06C153.112 38.4056 152.629 36.7868 151.721 35.404C150.813 34.0213 149.519 32.9351 148 32.28L100.44 12C98.3198 11.13 90.1197 10.45 87.9997 11.35Z" fill="black"/>
<path d="M86.3199 12L38.7899 32.28C37.2644 32.9295 35.9636 34.0134 35.0496 35.3968C34.1357 36.7802 33.6489 38.4019 33.6499 40.06V59.58C33.6523 77.6548 39.0149 95.3229 49.0595 110.35C59.1041 125.376 73.3794 137.087 90.0799 144C108.54 138.37 122.32 123.36 130.74 110.53C140.499 95.6846 145.674 78.2957 145.62 60.53V40.06C145.621 38.4019 145.134 36.7802 144.22 35.3968C143.306 34.0134 142.005 32.9295 140.48 32.28L92.9999 12C91.9445 11.5477 90.8082 11.3145 89.6599 11.3145C88.5116 11.3145 87.3753 11.5477 86.3199 12Z" fill="#0B8FAC"/>
<path d="M145.47 55.27C145.482 55.3461 145.482 55.4238 145.47 55.5C145.47 55.68 145.47 55.9 145.47 56.17C145.47 56.81 145.52 57.67 145.56 58.76C145.6 59.85 145.66 61.25 145.56 62.85C145.56 63.65 145.56 64.5 145.48 65.4C145.48 65.86 145.48 66.32 145.48 66.8C145.48 67.28 145.39 67.8 145.34 68.27C145.14 70.27 145.01 72.47 144.59 74.8C144.4 75.96 144.25 77.18 144.01 78.41C143.77 79.64 143.47 80.91 143.19 82.21C141.869 87.8309 140.031 93.3176 137.7 98.6C135.318 103.858 132.473 108.895 129.2 113.65C127.62 115.79 126.2 117.86 124.6 119.65C123.83 120.55 123.13 121.46 122.38 122.26L120.22 124.56C118.88 126.06 117.5 127.25 116.35 128.36C115.76 128.9 115.23 129.42 114.72 129.87L113.32 131L111.32 132.64L110.79 133.06C110.67 133.15 110.6 133.19 110.6 133.18C110.6 133.17 110.6 133.12 110.75 133.01L111.25 132.56L113.18 130.85L114.59 129.62C115.1 129.17 115.59 128.62 116.19 128.08C117.32 126.96 118.67 125.76 119.99 124.25L122.12 121.93C122.86 121.13 123.55 120.22 124.3 119.32C125.85 117.54 127.3 115.47 128.84 113.32C132.081 108.575 134.902 103.556 137.27 98.32C139.581 93.0642 141.419 87.6125 142.76 82.03C143.05 80.74 143.32 79.48 143.6 78.26C143.88 77.04 144 75.82 144.2 74.66C144.64 72.34 144.79 70.15 145.01 68.16C145.07 67.67 145.12 67.16 145.17 66.71C145.22 66.26 145.17 65.77 145.23 65.32C145.27 64.42 145.31 63.57 145.35 62.77C145.46 61.18 145.43 59.77 145.43 58.69V56.18V55.5C145.428 55.4214 145.442 55.3433 145.47 55.27Z" fill="#263238"/>
<path d="M108.46 81.5H103.39V53.91C103.301 50.8465 102.021 47.9384 99.8225 45.803C97.624 43.6676 94.6798 42.4732 91.615 42.4732C88.5502 42.4732 85.606 43.6676 83.4075 45.803C81.209 47.9384 79.9293 50.8465 79.84 53.91V81.5H74.77V53.91C74.8771 49.5135 76.6989 45.3331 79.8463 42.2615C82.9937 39.1898 87.2172 37.4705 91.615 37.4705C96.0128 37.4705 100.236 39.1898 103.384 42.2615C106.531 45.3331 108.353 49.5135 108.46 53.91V81.5Z" fill="#F5F5F5"/>
<path d="M108.51 62.78H74.7299C71.5212 62.78 68.9199 65.3812 68.9199 68.59V92.55C68.9199 95.7587 71.5212 98.36 74.7299 98.36H108.51C111.719 98.36 114.32 95.7587 114.32 92.55V68.59C114.32 65.3812 111.719 62.78 108.51 62.78Z" fill="white"/>
<path d="M108.51 98.36C109.019 98.3062 109.523 98.2194 110.02 98.1C111.232 97.7504 112.295 97.0136 113.048 96.0023C113.801 94.991 114.202 93.7608 114.19 92.5C114.19 91.33 114.19 90.06 114.19 88.69C114.19 85.96 114.19 82.85 114.19 79.41C114.19 75.97 114.19 72.22 114.19 68.18C114.115 67.1731 113.768 66.2054 113.187 65.3796C112.606 64.5538 111.812 63.9008 110.89 63.49C109.906 63.085 108.84 62.9204 107.78 63.01H104.42L74.7301 63C73.4822 62.9996 72.2705 63.4197 71.2907 64.1927C70.3109 64.9656 69.6202 66.0462 69.3301 67.26C69.2004 67.8643 69.1466 68.4824 69.1701 69.1V74.73C69.1701 79.73 69.1701 84.45 69.1701 89C69.2601 91.26 68.7901 93.59 69.9501 95.37C70.4637 96.2444 71.2042 96.9635 72.0933 97.4511C72.9824 97.9388 73.9868 98.1768 75.0001 98.14H86.2501L102.54 98.23H106.96H108.11C108.243 98.2174 108.377 98.2174 108.51 98.23C108.377 98.245 108.243 98.245 108.11 98.23H106.96H102.54L86.2501 98.31H75.0001C74.1739 98.3471 73.3488 98.2143 72.5758 97.92C71.8029 97.6256 71.0985 97.1759 70.5062 96.5986C69.9139 96.0213 69.4463 95.3287 69.1322 94.5635C68.8181 93.7984 68.6643 92.9769 68.6801 92.15V89C68.6801 84.45 68.6801 79.68 68.6801 74.73V69.14C68.6501 68.4688 68.7072 67.7965 68.8501 67.14C69.1751 65.8294 69.9326 64.6667 71.0001 63.84C72.0765 62.9886 73.4078 62.5237 74.7801 62.52H104.36H107.72C108.847 62.4339 109.979 62.6191 111.02 63.06C112.015 63.5041 112.87 64.2107 113.494 65.1038C114.117 65.997 114.486 67.0432 114.56 68.13C114.56 72.21 114.56 75.95 114.56 79.39C114.56 82.83 114.56 85.94 114.56 88.67C114.56 90.04 114.56 91.31 114.56 92.48C114.561 93.5751 114.256 94.6488 113.68 95.58C112.896 96.8732 111.636 97.8068 110.17 98.18C109.633 98.343 109.07 98.4041 108.51 98.36Z" fill="#263238"/>
<path d="M95.0999 81.49C95.5576 81.0336 95.9205 80.4911 96.1676 79.8938C96.4148 79.2966 96.5413 78.6563 96.5399 78.01C96.5458 77.0783 96.2913 76.1636 95.805 75.3689C95.3187 74.5742 94.6201 73.9312 93.7879 73.5123C92.9557 73.0935 92.0231 72.9154 91.0951 72.9984C90.1671 73.0813 89.2808 73.4218 88.536 73.9815C87.7913 74.5413 87.2177 75.298 86.88 76.1663C86.5423 77.0346 86.454 77.98 86.6249 78.8958C86.7958 79.8117 87.2192 80.6615 87.8474 81.3496C88.4755 82.0377 89.2834 82.5365 90.1799 82.79L89.1099 87.53H93.8599L92.8599 82.79C93.6899 82.5529 94.4444 82.1051 95.0499 81.49" fill="#0B8FAC"/>
<path d="M404.82 117.17V157.69C404.91 164.69 405.94 175.69 394.82 175.33C385.23 174.33 382.68 165.2 382.61 158.66C382.61 155.56 382.54 152.97 382.51 152.66C382.51 152.66 372.01 151.8 371.12 141.42C370.69 136.42 370.65 126.01 370.72 116.6C370.763 111.727 372.638 107.048 375.974 103.494C379.309 99.9399 383.859 97.7716 388.72 97.42L389.72 97.35C400.59 97.19 405 106.32 404.82 117.17Z" fill="#FFBF9D"/>
<path d="M382.54 152.66C387.337 152.292 391.928 150.556 395.77 147.66C395.77 147.66 393.03 155.49 382.6 155.31L382.54 152.66Z" fill="#FF9A6C"/>
<path d="M388.49 120.86C388.7 121.07 389.9 120.1 391.63 120.06C393.36 120.02 394.63 120.86 394.85 120.64C395.07 120.42 394.73 120.15 394.16 119.76C393.399 119.249 392.497 118.99 391.58 119.02C390.671 119.049 389.795 119.368 389.08 119.93C388.56 120.37 388.39 120.76 388.49 120.86Z" fill="#263238"/>
<path d="M388.46 125.77C388.481 126.138 388.646 126.483 388.919 126.73C389.192 126.977 389.552 127.106 389.92 127.09C390.099 127.091 390.277 127.057 390.443 126.988C390.609 126.92 390.759 126.818 390.885 126.691C391.011 126.563 391.11 126.411 391.176 126.244C391.242 126.078 391.274 125.899 391.27 125.72C391.247 125.355 391.083 125.013 390.812 124.767C390.541 124.52 390.186 124.389 389.82 124.4C389.641 124.4 389.463 124.436 389.297 124.504C389.132 124.573 388.981 124.675 388.855 124.802C388.728 124.929 388.628 125.08 388.561 125.246C388.493 125.413 388.459 125.591 388.46 125.77Z" fill="#263238"/>
<path d="M384.14 133C383.278 132.799 382.395 132.705 381.51 132.72C381.1 132.72 380.71 132.65 380.62 132.38C380.554 131.961 380.616 131.532 380.8 131.15C381.12 130.15 381.44 129.08 381.8 127.96C383.15 123.42 384.1 119.7 383.92 119.65C383.74 119.6 382.49 123.23 381.14 127.77C380.82 128.89 380.51 129.96 380.21 130.98C379.993 131.49 379.961 132.059 380.12 132.59C380.188 132.731 380.287 132.854 380.41 132.949C380.533 133.045 380.677 133.11 380.83 133.14C381.063 133.167 381.298 133.167 381.53 133.14C382.403 133.197 383.279 133.15 384.14 133Z" fill="#263238"/>
<path d="M389.23 113.46C389.4 113.85 390.79 113.56 392.46 113.64C394.13 113.72 395.46 114.09 395.69 113.72C395.77 113.55 395.51 113.19 394.95 112.85C394.204 112.431 393.369 112.195 392.514 112.16C391.659 112.125 390.808 112.293 390.03 112.65C389.44 112.94 389.16 113.28 389.23 113.46Z" fill="#263238"/>
<path d="M372.72 116.06C372.91 116.38 374.26 116.06 375.91 115.98C377.56 115.9 378.91 116.14 379.09 115.81C379.16 115.65 378.89 115.37 378.32 115.12C377.549 114.812 376.72 114.676 375.89 114.72C375.05 114.743 374.224 114.948 373.47 115.32C372.91 115.61 372.64 115.91 372.72 116.06Z" fill="#263238"/>
<path d="M357 107.29C357.058 107.079 357.158 106.882 357.294 106.71C357.43 106.538 357.598 106.396 357.79 106.29C358.619 105.913 359.534 105.764 360.44 105.86C363.21 105.809 365.91 104.988 368.24 103.49C369.328 101.927 370.542 100.455 371.87 99.09C375.02 95.85 377.6 93.64 380.28 92.56C383.74 91.17 389.53 90.56 393.14 91.56C396.75 92.56 399.99 95.44 400.5 99.13C402.5 97.42 405.56 97.44 408.03 98.43H408.09C410.83 99.43 412.39 102.31 413.2 105.11C414.01 107.91 414.36 110.91 415.84 113.42C416.15 113.94 416.52 114.57 416.25 115.12C416.125 115.319 415.942 115.476 415.726 115.568C415.51 115.661 415.271 115.686 415.04 115.64C414.577 115.541 414.14 115.343 413.76 115.06C414.07 115.8 414.37 116.53 414.68 117.26C413.679 117.434 412.651 117.369 411.68 117.07C411.176 119.566 410.525 122.031 409.73 124.45C408.706 124.329 407.673 124.581 406.82 125.16C405.82 126.03 405.43 127.66 403.82 127.04C403.01 126.72 402.27 125.04 401.99 124.19C400.181 118.652 399.585 112.789 400.24 107C399.103 105.789 397.745 104.805 396.24 104.1L396.36 104.21C393.46 103.21 390.18 102.21 387.43 103.57C385.3 104.63 384.05 106.84 382.43 108.57C380.964 110.214 379.179 111.544 377.183 112.477C375.187 113.411 373.022 113.929 370.82 114C370.67 116.92 370.91 121.05 370.76 124L368.3 119.32C368.107 118.996 367.93 118.662 367.77 118.32V118.22C367.524 117.649 367.247 117.091 366.94 116.55C366.6 116.824 366.172 116.966 365.736 116.953C365.299 116.939 364.882 116.769 364.559 116.474C364.237 116.18 364.03 115.779 363.977 115.346C363.924 114.912 364.028 114.474 364.27 114.11C364.517 113.77 364.813 113.47 365.15 113.22C364.793 113.568 364.352 113.816 363.87 113.941C363.387 114.065 362.881 114.061 362.4 113.93C361.924 113.785 361.509 113.487 361.22 113.082C360.93 112.677 360.783 112.187 360.8 111.69C360.842 111.356 360.969 111.038 361.171 110.768C361.373 110.498 361.641 110.285 361.95 110.15C360.663 110.253 359.374 109.968 358.25 109.33C357.45 108.9 356.73 108.21 357 107.29Z" fill="#263238"/>
<path d="M397.21 100.34C397.572 100.644 397.906 100.978 398.21 101.34C399.032 102.328 399.58 103.514 399.8 104.78C399.982 105.648 400.072 106.533 400.07 107.42C400.07 108.42 400 109.42 399.92 110.48C399.826 111.611 399.802 112.746 399.85 113.88C399.878 114.485 399.955 115.087 400.08 115.68C400.173 116.312 400.424 116.911 400.81 117.42C400.992 117.622 401.223 117.773 401.48 117.859C401.738 117.945 402.013 117.962 402.28 117.91C402.787 117.817 403.249 117.557 403.59 117.17C404.155 116.396 404.501 115.484 404.59 114.53H404.38C404.69 115.315 405.114 116.05 405.64 116.71C406.143 117.317 406.858 117.71 407.64 117.81C408.007 117.847 408.378 117.781 408.71 117.62C409.02 117.458 409.274 117.208 409.44 116.9C409.59 116.617 409.666 116.3 409.66 115.98C409.644 115.682 409.524 115.398 409.32 115.18L409.21 115.28C409.828 115.986 410.588 116.555 411.44 116.95C411.74 117.083 411.97 117.173 412.13 117.22L412.38 117.28L412.15 117.18C411.99 117.11 411.76 117.02 411.48 116.88C410.655 116.462 409.921 115.884 409.32 115.18L409.21 115.28C409.38 115.498 409.478 115.763 409.491 116.039C409.503 116.315 409.43 116.588 409.28 116.82C409.132 117.091 408.906 117.311 408.63 117.45C408.319 117.6 407.972 117.655 407.63 117.61C406.899 117.526 406.228 117.169 405.75 116.61C405.247 115.961 404.84 115.244 404.54 114.48L404.39 114.15L404.32 114.51C404.213 115.423 403.868 116.292 403.32 117.03C403.007 117.37 402.593 117.601 402.14 117.69C401.914 117.736 401.68 117.722 401.461 117.65C401.242 117.579 401.045 117.451 400.89 117.28C400.53 116.803 400.299 116.242 400.22 115.65C400.097 115.07 400.016 114.482 399.98 113.89C399.932 112.763 399.956 111.634 400.05 110.51C400.11 109.43 400.18 108.41 400.17 107.44C400.164 106.542 400.063 105.647 399.87 104.77C399.627 103.48 399.043 102.279 398.18 101.29C397.913 100.92 397.585 100.599 397.21 100.34Z" fill="#455A64"/>
<path d="M365.1 110.43L365.19 110.5C365.272 110.57 365.359 110.633 365.45 110.69C365.586 110.801 365.734 110.899 365.89 110.98C366.094 111.1 366.305 111.211 366.52 111.31C367.911 111.941 369.437 112.216 370.96 112.11C373.227 111.957 375.401 111.151 377.22 109.79C379.421 108.115 381.252 106.005 382.6 103.59C383.36 102.34 383.97 101.05 384.6 99.86C385.246 98.698 386.054 97.634 387 96.7C387.832 95.8519 388.864 95.2261 390 94.88C390.514 94.7376 391.047 94.6768 391.58 94.7C392.065 94.7367 392.542 94.8376 393 95C393.808 95.2742 394.547 95.7174 395.17 96.3C395.64 96.7396 396.035 97.253 396.34 97.82C396.582 98.3154 396.76 98.8396 396.87 99.38C396.87 99.38 396.87 99.38 396.87 99.27C396.87 99.16 396.87 99.08 396.82 98.95C396.737 98.5446 396.603 98.1514 396.42 97.78C395.72 96.4043 394.517 95.3513 393.06 94.84C392.579 94.6725 392.078 94.5683 391.57 94.53C391.017 94.5067 390.465 94.5674 389.93 94.71C388.76 95.0553 387.697 95.6919 386.84 96.56C385.897 97.5043 385.098 98.5826 384.47 99.76C383.78 100.96 383.16 102.24 382.42 103.49C381.081 105.873 379.275 107.962 377.11 109.63C375.329 110.979 373.198 111.788 370.97 111.96C369.47 112.078 367.964 111.831 366.58 111.24C366.07 111.001 365.576 110.731 365.1 110.43Z" fill="#455A64"/>
<path d="M364.16 105.87C364.16 105.87 364.28 105.98 364.53 106.13C364.882 106.344 365.25 106.531 365.63 106.69C366.196 106.93 366.781 107.121 367.38 107.26C368.112 107.432 368.859 107.533 369.61 107.56C370.363 107.579 371.116 107.528 371.86 107.41C372.462 107.308 373.055 107.155 373.63 106.95C374.022 106.816 374.403 106.652 374.77 106.46C374.908 106.398 375.039 106.321 375.16 106.23C375.16 106.23 374.57 106.48 373.58 106.79C373.003 106.962 372.415 107.095 371.82 107.19C371.091 107.291 370.356 107.335 369.62 107.32C368.884 107.287 368.152 107.197 367.43 107.05C366.841 106.92 366.263 106.747 365.7 106.53C364.74 106.16 364.18 105.83 364.16 105.87Z" fill="#455A64"/>
<path d="M372.65 120.86C372.85 121.07 374.05 120.1 375.79 120.06C377.53 120.02 378.79 120.86 379.01 120.64C379.23 120.42 378.88 120.15 378.32 119.76C377.555 119.249 376.649 118.991 375.73 119.02C374.824 119.048 373.951 119.367 373.24 119.93C372.71 120.37 372.54 120.76 372.65 120.86Z" fill="#263238"/>
<path d="M374.42 125.77C374.443 126.135 374.607 126.477 374.878 126.723C375.149 126.97 375.504 127.101 375.87 127.09C376.05 127.091 376.228 127.057 376.394 126.988C376.561 126.92 376.712 126.819 376.838 126.691C376.965 126.564 377.065 126.412 377.132 126.245C377.199 126.078 377.233 125.9 377.23 125.72C377.204 125.354 377.038 125.012 376.766 124.766C376.494 124.52 376.137 124.389 375.77 124.4C375.591 124.4 375.414 124.436 375.249 124.505C375.084 124.574 374.934 124.675 374.808 124.802C374.683 124.93 374.584 125.081 374.517 125.247C374.45 125.413 374.417 125.591 374.42 125.77Z" fill="#263238"/>
<path d="M404.55 124.92C404.72 124.83 411.55 122.29 411.82 129.4C412.09 136.51 404.91 135.33 404.89 135.13C404.87 134.93 404.55 124.92 404.55 124.92Z" fill="#FFBF9D"/>
<path d="M407 132.35C407 132.35 407.13 132.43 407.34 132.52C407.639 132.636 407.971 132.636 408.27 132.52C408.717 132.21 409.073 131.786 409.302 131.292C409.53 130.798 409.623 130.252 409.57 129.71C409.569 129.1 409.429 128.498 409.16 127.95C409.082 127.727 408.95 127.527 408.775 127.368C408.601 127.21 408.389 127.097 408.16 127.04C408.017 127.012 407.869 127.033 407.74 127.1C407.611 127.168 407.509 127.277 407.45 127.41C407.36 127.61 407.45 127.75 407.37 127.77C407.29 127.79 407.22 127.66 407.26 127.36C407.297 127.183 407.388 127.023 407.52 126.9C407.713 126.749 407.955 126.674 408.2 126.69C408.494 126.737 408.771 126.859 409.005 127.042C409.24 127.226 409.424 127.466 409.54 127.74C409.875 128.353 410.05 129.041 410.05 129.74C410.05 131.17 409.39 132.54 408.37 132.88C408.182 132.943 407.981 132.964 407.784 132.939C407.587 132.915 407.398 132.847 407.23 132.74C407 132.52 406.93 132.36 407 132.35Z" fill="#FF9A6C"/>
<path d="M389.2 134.42C389.26 134.42 389.26 134.84 389.02 135.42C388.671 136.2 388.101 136.861 387.38 137.32C386.679 137.793 385.845 138.031 385 138C384.35 137.94 384 137.72 384 137.67C384 137.62 384.4 137.67 385 137.67C385.762 137.614 386.499 137.366 387.14 136.95C387.787 136.535 388.331 135.977 388.73 135.32C389 134.77 389.12 134.4 389.2 134.42Z" fill="#263238"/>
<path d="M425 415.59L427.12 439.59L434.64 458.15C434.763 458.473 434.817 458.819 434.796 459.165C434.775 459.51 434.682 459.847 434.521 460.154C434.36 460.46 434.136 460.729 433.863 460.942C433.591 461.155 433.276 461.308 432.94 461.39C432.542 461.509 432.123 461.534 431.713 461.465C431.304 461.395 430.916 461.233 430.58 460.99C426.29 457.87 410.82 446.39 410.65 444.9C410.43 442.96 406.48 419.33 406.48 419.33L425 415.59Z" fill="#455A64"/>
<path d="M433 461.42L410.28 442.19L410.51 443.97C410.66 444.97 410.68 445.47 411.36 446.08C417.398 451.549 423.742 456.671 430.36 461.42C430.767 461.61 431.211 461.709 431.66 461.709C432.11 461.709 432.553 461.61 432.96 461.42H433Z" fill="#263238"/>
<path d="M414.7 434.69C415.033 434.862 415.287 435.155 415.409 435.508C415.532 435.862 415.514 436.249 415.36 436.59C415.16 436.92 414.847 437.165 414.479 437.281C414.111 437.397 413.713 437.375 413.36 437.22C413.013 437.036 412.749 436.727 412.623 436.355C412.497 435.983 412.517 435.577 412.68 435.22C412.922 434.896 413.276 434.672 413.673 434.593C414.069 434.514 414.482 434.584 414.83 434.79" fill="white"/>
<path d="M425.94 451.52C426.09 451.58 426.52 450.26 427.94 449.44C428.842 449 429.813 448.719 430.81 448.61C430.81 448.55 430.48 448.4 429.88 448.38C429.089 448.373 428.31 448.584 427.63 448.99C426.967 449.374 426.432 449.944 426.09 450.63C425.87 451.15 425.87 451.51 425.94 451.52Z" fill="#263238"/>
<path d="M428.12 454.55C428.25 454.65 428.98 453.78 430.26 453.3C431.068 453.066 431.89 452.882 432.72 452.75C432.299 452.558 431.841 452.463 431.378 452.473C430.916 452.484 430.462 452.599 430.05 452.81C428.59 453.37 428 454.5 428.12 454.55Z" fill="#263238"/>
<path d="M422.09 447.75C423.092 446.955 424.151 446.236 425.26 445.6C426.46 445.109 427.693 444.705 428.95 444.39C427.588 444.185 426.196 444.446 425 445.13C422.94 446.12 422 447.69 422.09 447.75Z" fill="#263238"/>
<path d="M420.8 440.49C420.88 440.63 422.23 439.93 424.05 439.69C425.87 439.45 427.38 439.69 427.42 439.56C426.347 439.045 425.133 438.904 423.97 439.16C422.793 439.23 421.675 439.699 420.8 440.49Z" fill="#263238"/>
<path d="M420 433.45C421.052 432.922 422.199 432.609 423.374 432.53C424.549 432.451 425.727 432.607 426.84 432.99C426.84 432.93 426.57 432.66 425.94 432.4C425.111 432.075 424.219 431.938 423.33 432C422.443 432.05 421.58 432.307 420.81 432.75C420.21 433.09 419.94 433.4 420 433.45Z" fill="#263238"/>
<path d="M423.15 431.19C423.15 431.19 423.21 430.86 423.09 430.28C422.914 429.454 422.574 428.672 422.09 427.98C421.761 427.433 421.262 427.008 420.67 426.77C420.464 426.709 420.246 426.708 420.04 426.768C419.834 426.829 419.65 426.947 419.51 427.11C419.391 427.27 419.305 427.453 419.257 427.647C419.209 427.841 419.2 428.042 419.23 428.24C419.403 429.064 419.857 429.802 420.513 430.329C421.17 430.856 421.988 431.139 422.83 431.13C423.671 431.143 424.497 430.911 425.207 430.462C425.918 430.012 426.482 429.365 426.83 428.6C426.909 428.413 426.945 428.211 426.935 428.008C426.924 427.805 426.868 427.608 426.77 427.43C426.642 427.257 426.465 427.125 426.262 427.052C426.059 426.979 425.839 426.968 425.63 427.02C425.025 427.215 424.478 427.559 424.04 428.02C423.418 428.593 422.9 429.269 422.51 430.02C422.349 430.285 422.246 430.582 422.21 430.89C422.781 429.915 423.492 429.029 424.32 428.26C424.713 427.872 425.193 427.584 425.72 427.42C425.833 427.388 425.954 427.392 426.065 427.432C426.176 427.471 426.272 427.544 426.34 427.64C426.395 427.761 426.423 427.892 426.423 428.025C426.423 428.158 426.395 428.289 426.34 428.41C426.022 429.059 425.528 429.605 424.914 429.987C424.301 430.369 423.593 430.571 422.87 430.57C422.157 430.573 421.463 430.336 420.901 429.897C420.339 429.458 419.94 428.843 419.77 428.15C419.721 427.876 419.779 427.594 419.93 427.36C420.005 427.267 420.106 427.2 420.221 427.166C420.335 427.132 420.457 427.133 420.57 427.17C421.071 427.372 421.5 427.72 421.8 428.17C422.433 429.085 422.89 430.109 423.15 431.19Z" fill="#263238"/>
<path d="M364.46 416.83L365.4 437.18C365.4 437.18 343.71 444.92 343.5 448.7L385.55 448.39L385.46 416.62L364.46 416.83Z" fill="#455A64"/>
<path d="M378.39 435.37C378.786 435.468 379.13 435.712 379.353 436.054C379.576 436.395 379.661 436.808 379.59 437.21C379.469 437.604 379.205 437.939 378.85 438.148C378.495 438.357 378.074 438.426 377.67 438.34C377.253 438.237 376.891 437.98 376.656 437.619C376.422 437.259 376.334 436.823 376.41 436.4C376.576 435.995 376.888 435.667 377.285 435.481C377.681 435.296 378.133 435.267 378.55 435.4" fill="#E0E0E0"/>
<path d="M385.55 448.39L385.41 445.19L345.14 446.68C345.14 446.68 343.28 447.46 343.5 448.68L385.55 448.39Z" fill="#263238"/>
<path d="M364.72 437C364.72 437.19 365.72 437.27 366.72 437.88C367.72 438.49 368.28 439.3 368.47 439.22C368.66 439.14 368.34 438.03 367.1 437.31C365.86 436.59 364.67 436.81 364.72 437Z" fill="#263238"/>
<path d="M360.32 438.73C360.32 438.92 361.17 439.24 361.87 440.05C362.57 440.86 362.79 441.73 362.99 441.72C363.19 441.71 363.32 440.61 362.42 439.62C361.52 438.63 360.33 438.55 360.32 438.73Z" fill="#263238"/>
<path d="M357.86 443.71C358.05 443.71 358.32 442.79 357.79 441.71C357.26 440.63 356.29 440.25 356.2 440.41C356.11 440.57 356.72 441.13 357.14 442C357.56 442.87 357.66 443.7 357.86 443.71Z" fill="#263238"/>
<path d="M365.05 432.32C365.14 432.5 366.05 432.23 367.24 432.32C368.43 432.41 369.31 432.72 369.41 432.56C369.51 432.4 368.65 431.71 367.28 431.65C365.91 431.59 365 432.17 365.05 432.32Z" fill="#263238"/>
<path d="M357.14 270.68C357.14 271.85 362.02 434.53 362.02 434.53H388.02L393.29 295.37C393.29 295.37 399.44 368.13 399.44 369.7C399.44 371.27 404.86 435.31 404.86 435.31L428.96 433.46L427.37 287L424.43 265.52L357.14 270.68Z" fill="#263238"/>
<path d="M396 290.22C395.671 290.407 395.317 290.548 394.95 290.64C394.26 290.88 393.25 291.21 392.01 291.64L391.78 291.71V291.48C391.64 289.53 391.47 286.91 391.32 284.04C391.15 280.93 391.03 278.12 390.97 276.04C390.97 275.04 390.92 274.19 390.92 273.62C390.89 273.322 390.911 273.021 390.98 272.73C391.063 273.016 391.11 273.312 391.12 273.61C391.19 274.18 391.26 275.01 391.33 276.02C391.49 278.02 391.67 280.87 391.83 284.02C391.99 286.89 392.1 289.51 392.16 291.47L391.91 291.31C393.17 290.96 394.19 290.68 394.91 290.5C395.263 290.371 395.628 290.278 396 290.22Z" fill="#455A64"/>
<path d="M394 273.31C394 273.31 394.08 273.18 394.35 273.09C394.73 272.99 395.133 273.025 395.49 273.19C395.759 273.289 395.989 273.471 396.146 273.711C396.302 273.95 396.378 274.234 396.36 274.52C396.327 274.881 396.175 275.222 395.93 275.489C395.684 275.757 395.358 275.936 395 276C394.637 276.054 394.265 276.008 393.926 275.865C393.588 275.722 393.295 275.488 393.08 275.19C392.93 274.959 392.85 274.69 392.85 274.415C392.85 274.14 392.93 273.871 393.08 273.64C393.287 273.33 393.589 273.095 393.94 272.97C394.2 272.88 394.35 272.9 394.36 272.92C394.37 272.94 393.77 273.11 393.41 273.79C393.305 273.971 393.254 274.179 393.265 274.389C393.275 274.599 393.347 274.8 393.47 274.97C393.632 275.184 393.848 275.351 394.096 275.453C394.344 275.555 394.615 275.588 394.88 275.55C395.128 275.502 395.356 275.382 395.534 275.204C395.712 275.025 395.833 274.798 395.88 274.55C395.9 274.345 395.856 274.139 395.754 273.96C395.652 273.781 395.497 273.638 395.31 273.55C394.91 273.333 394.451 273.249 394 273.31Z" fill="#455A64"/>
<path d="M405.94 275C405.8 275 405.6 274.3 405.5 273.42C405.4 272.54 405.43 271.81 405.57 271.8C405.71 271.79 405.91 272.49 406.01 273.37C406.11 274.25 406.08 275 405.94 275Z" fill="#455A64"/>
<path d="M407.74 274.81C407.6 274.81 407.48 274.06 407.48 273.13C407.48 272.2 407.58 271.45 407.73 271.45C407.88 271.45 407.99 272.2 407.99 273.13C407.99 274.06 407.89 274.81 407.74 274.81Z" fill="#455A64"/>
<path d="M376.41 275.93C376.27 275.93 376.05 275.1 375.92 274.05C375.79 273 375.8 272.12 375.92 272.11C376.04 272.1 376.28 272.94 376.41 274C376.54 275.06 376.55 275.92 376.41 275.93Z" fill="#455A64"/>
<path d="M378.6 276.09C378.138 275.53 377.909 274.814 377.96 274.09C377.852 273.39 378.013 272.676 378.41 272.09C378.56 272.09 378.41 273.01 378.48 274.09C378.55 275.17 378.74 276.05 378.6 276.09Z" fill="#455A64"/>
<path d="M370.38 273.92C370.391 274.16 370.361 274.4 370.29 274.63C370.165 275.279 369.991 275.917 369.77 276.54C369.029 278.64 367.94 280.6 366.55 282.34C365.107 284.134 363.393 285.693 361.47 286.96C360.879 287.35 360.265 287.704 359.63 288.02C359.399 288.15 359.154 288.254 358.9 288.33C358.9 288.27 359.84 287.75 361.27 286.72C363.11 285.414 364.759 283.86 366.17 282.1C367.533 280.385 368.641 278.482 369.46 276.45C370.07 274.9 370.3 273.9 370.38 273.92Z" fill="#455A64"/>
<path d="M426.58 284.88C426.324 284.956 426.058 284.997 425.79 285C425.065 285.057 424.336 285.057 423.61 285C421.236 284.772 418.952 283.976 416.95 282.68C415.054 281.438 413.525 279.712 412.52 277.68C412.228 277.089 412 276.469 411.84 275.83C411.759 275.606 411.722 275.368 411.73 275.13C411.81 275.13 412.03 276.13 412.82 277.56C413.875 279.494 415.39 281.139 417.23 282.35C419.169 283.602 421.362 284.408 423.65 284.71C425.44 284.91 426.57 284.8 426.58 284.88Z" fill="#455A64"/>
<path d="M384.23 367.26C384.23 367.37 379.89 366.43 374.61 365.18C369.33 363.93 365.07 362.81 365.11 362.7C365.15 362.59 369.45 363.52 374.73 364.78C380.01 366.04 384.26 367.15 384.23 367.26Z" fill="#455A64"/>
<path d="M426.11 361.34C426.17 361.44 422.42 363.39 417.74 365.71C413.06 368.03 409.2 369.82 409.14 369.71C409.08 369.6 412.83 367.65 417.51 365.34C422.19 363.03 426.05 361.24 426.11 361.34Z" fill="#455A64"/>
<path d="M344.52 215.59L348.07 220.04V212.39H359.27C359.27 212.39 360.51 229.9 360.27 233.63C360.005 235.574 359.546 237.487 358.9 239.34C358.566 240.418 357.959 241.392 357.138 242.168C356.318 242.944 355.311 243.495 354.216 243.768C353.12 244.042 351.973 244.028 350.884 243.729C349.795 243.43 348.802 242.855 348 242.06C346.747 240.841 345.577 239.538 344.5 238.16C339.5 231.76 331.26 216.16 331.26 216.16L339.9 211L344.52 215.59Z" fill="#FFBF9D"/>
<path d="M343.81 214.77C344.233 215.481 344.722 216.15 345.27 216.77C346.27 217.94 347.53 219.55 349.02 221.29C350.51 223.03 351.93 224.57 353.02 225.62C353.572 226.226 354.213 226.745 354.92 227.16C354.413 226.525 353.865 225.924 353.28 225.36C352.28 224.26 350.9 222.69 349.41 220.95C346.46 217.41 343.94 214.65 343.81 214.77Z" fill="#FF9A6C"/>
<path d="M370.06 161.8L381.87 157.16L403.62 155.93L413.84 159.82L399.83 167.6L387.75 167.16L370.06 161.8Z" fill="#FFBF9D"/>
<path d="M356.13 272.9C357.2 273.08 428.46 276.11 428.46 276.11L426 212L425.79 199.42L421.79 161.31C421.79 161.31 411.13 157.64 405.7 155.89C405.7 155.89 399.98 161.89 389.1 161.69C378.47 161.54 376.25 159.14 376.25 159.14L361.39 164.84C361.39 164.84 350.82 168.63 349 173.31C347.18 177.99 344 203.86 344 203.86H359.41L359 249.83L356.13 272.9Z" fill="#455A64"/>
<g opacity="0.2">
<path d="M400.94 187.38L403.15 203.54L413.84 208.31L421.74 201.58V186.58L400.94 187.38Z" fill="black"/>
</g>
<path d="M421.46 192C421.46 192.13 417.02 192.24 411.54 192.24C406.06 192.24 401.61 192.13 401.61 192C404.914 191.749 408.228 191.666 411.54 191.75C414.849 191.666 418.16 191.749 421.46 192Z" fill="#263238"/>
<path d="M351.33 180C351.381 180.14 351.421 180.284 351.45 180.43C351.52 180.75 351.61 181.15 351.73 181.66C352.114 183.203 352.588 184.722 353.15 186.21C353.86 188.12 354.86 190.37 356.09 192.89C357.32 195.41 358.3 198.42 359.39 201.62C359.39 205.46 359.39 209.62 359.31 214.05C359.21 223.85 359.11 232.72 359.05 239.19C358.99 242.37 358.95 244.96 358.91 246.81C358.91 247.67 358.89 248.36 358.85 248.88C358.855 249.121 358.838 249.362 358.8 249.6C358.783 249.357 358.783 249.113 358.8 248.87C358.8 248.363 358.8 247.673 358.8 246.8C358.8 244.96 358.8 242.36 358.8 239.18C358.8 232.71 358.88 223.84 358.93 214.05C358.93 209.66 359.01 205.46 359.04 201.62V201.69C357.97 198.49 356.94 195.52 355.82 192.97C354.751 190.774 353.796 188.525 352.96 186.23C352.42 184.728 351.982 183.191 351.65 181.63C351.55 181.08 351.47 180.63 351.43 180.37C351.385 180.25 351.352 180.126 351.33 180Z" fill="#263238"/>
<path d="M426.88 172.52C426.915 172.976 426.915 173.434 426.88 173.89C426.88 174.89 426.8 176.11 426.74 177.61C426.61 180.83 426.44 185.13 426.25 189.88C426.06 194.63 425.84 198.94 425.7 202.16C425.61 203.66 425.54 204.91 425.48 205.88C425.478 206.337 425.431 206.792 425.34 207.24C425.304 206.784 425.304 206.326 425.34 205.87C425.34 204.87 425.34 203.65 425.41 202.15C425.49 199 425.63 194.66 425.83 189.87C426.03 185.08 426.25 180.73 426.45 177.6C426.55 176.03 426.65 174.76 426.74 173.88C426.747 173.423 426.794 172.968 426.88 172.52Z" fill="#263238"/>
<g opacity="0.3">
<path d="M351.37 182.35C351.099 189.387 353.614 196.247 358.37 201.44C356.92 194.83 353.3 188.68 351.37 182.35Z" fill="black"/>
</g>
<g opacity="0.3">
<path d="M382.67 245.78C386.02 245.334 389.076 243.632 391.22 241.02C393.476 238.501 395.408 235.709 396.97 232.71C398.987 228.631 400.131 224.176 400.33 219.63C396.18 230.76 390.1 239.56 382.67 245.78Z" fill="black"/>
</g>
<path d="M401.65 214.78C401.643 214.918 401.623 215.056 401.59 215.19C401.52 215.51 401.43 215.89 401.33 216.35C401.23 216.81 401.07 217.46 400.85 218.16C400.63 218.86 400.42 219.66 400.1 220.53C399.4 222.577 398.578 224.58 397.64 226.53C395.346 231.303 392.401 235.735 388.89 239.7C387.457 241.318 385.92 242.841 384.29 244.26C383.62 244.89 382.95 245.39 382.38 245.85C381.81 246.31 381.31 246.68 380.88 246.97L379.88 247.64C379.65 247.78 379.53 247.86 379.52 247.84C379.608 247.735 379.709 247.64 379.82 247.56L380.75 246.82C381.16 246.52 381.65 246.13 382.2 245.65C382.75 245.17 383.4 244.65 384.06 244.02C385.639 242.57 387.138 241.034 388.55 239.42C390.26 237.428 391.853 235.337 393.32 233.16C394.754 230.966 396.063 228.692 397.24 226.35C398.186 224.426 399.03 222.453 399.77 220.44C400.11 219.59 400.35 218.79 400.58 218.1C400.81 217.41 401 216.81 401.14 216.32C401.28 215.83 401.38 215.5 401.48 215.19C401.58 214.88 401.63 214.77 401.65 214.78Z" fill="#263238"/>
<path d="M399.59 194.72C399.575 194.942 399.544 195.162 399.5 195.38C399.42 195.85 399.31 196.47 399.18 197.24C399.05 198.01 398.85 199.03 398.56 200.16C398.27 201.29 398.01 202.6 397.56 204C397.36 204.7 397.14 205.44 396.91 206.21C396.68 206.98 396.38 207.76 396.1 208.57C395.57 210.22 394.85 211.92 394.1 213.72C390.815 221.489 386.401 228.731 381 235.21C379.73 236.67 378.54 238.09 377.32 239.31C376.72 239.93 376.16 240.55 375.58 241.1C375 241.65 374.45 242.19 373.91 242.69C372.91 243.69 371.83 244.56 370.91 245.32C369.99 246.08 369.25 246.71 368.59 247.2L367.08 248.34C366.915 248.484 366.734 248.609 366.54 248.71C366.686 248.549 366.847 248.401 367.02 248.27L368.47 247.06C369.11 246.55 369.89 245.92 370.74 245.13C371.59 244.34 372.62 243.5 373.65 242.45L375.29 240.85C375.86 240.29 376.41 239.67 377 239.05C378.21 237.82 379.38 236.4 380.64 234.93C385.994 228.461 390.399 221.262 393.72 213.55C394.46 211.76 395.18 210.08 395.72 208.45C396.01 207.63 396.31 206.86 396.55 206.1C396.79 205.34 397.01 204.61 397.23 203.91C397.69 202.52 397.98 201.23 398.29 200.1C398.6 198.97 398.82 198 398.98 197.2C399.14 196.4 399.29 195.83 399.39 195.36C399.433 195.14 399.5 194.926 399.59 194.72Z" fill="#263238"/>
<path d="M343.28 174.79L370.72 216.51C370.851 216.707 370.923 216.938 370.926 217.174C370.929 217.411 370.864 217.644 370.739 217.844C370.613 218.045 370.432 218.205 370.218 218.305C370.004 218.406 369.765 218.442 369.53 218.41L337.93 214.41C337.764 214.387 337.604 214.331 337.46 214.245C337.316 214.159 337.19 214.045 337.09 213.91L306.91 172.69C306.761 172.499 306.67 172.269 306.65 172.028C306.63 171.786 306.681 171.544 306.797 171.331C306.913 171.119 307.089 170.944 307.303 170.831C307.517 170.717 307.759 170.668 308 170.69L340.51 173.09C341.072 173.141 341.614 173.321 342.094 173.616C342.575 173.911 342.981 174.312 343.28 174.79Z" fill="#E0E0E0"/>
<path d="M343.28 174.79C343.212 174.654 343.128 174.526 343.03 174.41C342.752 174.065 342.413 173.774 342.03 173.55C341.379 173.21 340.655 173.035 339.92 173.04L337 172.8L318.26 171.33L312.05 170.85L308.75 170.6C308.46 170.6 308.21 170.6 307.88 170.6C307.542 170.611 307.22 170.742 306.97 170.97C306.716 171.201 306.553 171.515 306.509 171.856C306.465 172.197 306.543 172.542 306.73 172.83L315.51 184.88C321.71 193.35 328.51 202.66 335.66 212.44C336.12 213.05 336.53 213.64 337.03 214.28C337.184 214.45 337.376 214.58 337.59 214.66C337.787 214.729 337.992 214.769 338.2 214.78L339.32 214.92L343.74 215.48L352.38 216.56L368.72 218.56C369.06 218.56 369.34 218.65 369.72 218.67C369.915 218.671 370.108 218.634 370.288 218.56C370.469 218.487 370.632 218.378 370.77 218.24C371.032 217.971 371.185 217.615 371.2 217.24C371.185 216.874 371.052 216.523 370.82 216.24L368.7 213L364.7 207L357.54 196.17C353.16 189.58 349.62 184.23 347.15 180.52L344.3 176.27C343.98 175.81 343.73 175.44 343.54 175.18C343.46 175.05 343.369 174.926 343.27 174.81C343.339 174.948 343.416 175.081 343.5 175.21L344.21 176.33C344.85 177.33 345.78 178.78 346.97 180.63L357.23 196.38L364.34 207.24L368.34 213.29L370.42 216.46C370.6 216.67 370.705 216.934 370.72 217.21C370.71 217.472 370.603 217.722 370.42 217.91C370.234 218.095 369.983 218.199 369.72 218.2C369.45 218.2 369.08 218.12 368.77 218.09L352.4 216L343.76 214.91L339.34 214.35L338.23 214.21C338.064 214.196 337.9 214.166 337.74 214.12C337.6 214.066 337.473 213.98 337.37 213.87C336.93 213.27 336.49 212.68 336.05 212.07C328.89 202.31 322.05 193.01 315.87 184.54C312.76 180.32 309.82 176.3 307.06 172.54C306.957 172.392 306.896 172.218 306.884 172.038C306.872 171.857 306.909 171.677 306.991 171.516C307.073 171.355 307.197 171.219 307.35 171.123C307.503 171.027 307.679 170.974 307.86 170.97C308.09 170.97 308.41 170.97 308.68 171.02L311.98 171.26L318.2 171.7L337 173L339.94 173.2C340.657 173.176 341.368 173.331 342.01 173.65C342.511 173.934 342.944 174.323 343.28 174.79Z" fill="#263238"/>
<path d="M306.91 172.72C307.126 172.776 307.347 172.809 307.57 172.82L309.49 173.02L316.63 173.65L340.91 175.65L340.72 175.54C342.24 177.8 343.81 180.14 345.38 182.54C351.79 192.39 357.38 201.45 361.61 207.89C363.71 211.12 365.46 213.7 366.68 215.48L368.1 217.48C368.253 217.724 368.431 217.952 368.63 218.16C368.498 217.905 368.352 217.658 368.19 217.42L366.85 215.33L361.92 207.66C357.78 201.17 352.23 192.09 345.82 182.23C344.25 179.8 342.67 177.46 341.14 175.23L341.07 175.13H341L316.71 173.33L309.56 172.85L307.63 172.74C307.391 172.715 307.15 172.709 306.91 172.72Z" fill="#263238"/>
<path d="M325.72 179.09C325.739 179.007 325.774 178.929 325.824 178.86C325.874 178.791 325.937 178.732 326.01 178.688C326.083 178.644 326.164 178.616 326.248 178.604C326.332 178.592 326.418 178.598 326.5 178.62C326.822 178.693 327.117 178.856 327.35 179.09C327.499 179.226 327.595 179.409 327.622 179.608C327.65 179.807 327.607 180.009 327.5 180.18C327.19 180.57 326.5 180.42 326.16 180.1C326.007 179.983 325.886 179.829 325.809 179.652C325.732 179.475 325.701 179.282 325.72 179.09Z" fill="white"/>
<path d="M340.48 202.47C340.48 202.47 341.72 199.47 338.56 199.11C334.739 198.911 330.911 198.911 327.09 199.11C327.09 199.11 322.54 199.59 323.5 202.85C323.5 202.85 320.82 205.25 322.26 207.85C323.7 210.45 324.26 209.67 324.26 209.67C324.26 209.67 323.88 212.84 326.26 213.31C326.26 213.31 328.86 216.38 331.26 216.19C333.66 216 343.81 211.11 344.48 210.19C345.15 209.27 346.11 208.69 345.54 207.62C345.54 207.62 346.78 204.81 344.1 204.38C344.12 204.33 343.93 202 340.48 202.47Z" fill="#FFBF9D"/>
<path d="M326.06 203.54C326.763 203.687 327.483 203.74 328.2 203.7C329.52 203.7 331.34 203.7 333.35 203.7C335.082 203.75 336.815 203.65 338.53 203.4C339.89 203.08 340.43 202.28 340.37 202.26C339.783 202.632 339.132 202.893 338.45 203.03C337.2 203.24 335.35 203.11 333.34 203.18C331.33 203.25 329.51 203.27 328.19 203.33C327.474 203.314 326.759 203.385 326.06 203.54Z" fill="#FF9A6C"/>
<path d="M328.32 208.34C328.532 208.464 328.767 208.542 329.01 208.57C329.668 208.704 330.341 208.747 331.01 208.7C331.986 208.626 332.952 208.448 333.89 208.17C334.95 207.88 336.08 207.47 337.27 207.11C338.376 206.744 339.52 206.506 340.68 206.4C341.683 206.493 342.691 206.292 343.58 205.82C343.928 205.585 344.174 205.228 344.27 204.82C344.335 204.515 344.292 204.197 344.15 203.92C343.9 203.47 343.56 203.44 343.57 203.46C343.58 203.48 343.81 203.6 343.96 204.01C344.056 204.288 344.049 204.591 343.941 204.864C343.833 205.138 343.63 205.363 343.37 205.5C342.516 205.876 341.577 206.018 340.65 205.91C339.449 205.985 338.263 206.213 337.12 206.59L333.76 207.7C332.852 207.982 331.922 208.19 330.98 208.32C330.095 208.38 329.207 208.387 328.32 208.34Z" fill="#FF9A6C"/>
<path d="M331.72 212.39C332.448 212.348 333.168 212.21 333.86 211.98C335.16 211.65 336.94 211.14 338.86 210.51C340.78 209.88 342.54 209.23 343.78 208.72C344.485 208.499 345.157 208.186 345.78 207.79C345.72 207.65 342.6 208.79 338.78 210C334.96 211.21 331.68 212.25 331.72 212.39Z" fill="#FF9A6C"/>
<path d="M330.91 216.15C331.508 216.202 332.11 216.134 332.68 215.95C334.075 215.611 335.432 215.132 336.73 214.52C338.25 213.83 339.58 213.12 340.54 212.61C341.089 212.378 341.601 212.068 342.06 211.69C340.145 212.309 338.288 213.095 336.51 214.04C333.52 215.48 330.89 216 330.91 216.15Z" fill="#FF9A6C"/>
<path d="M431.93 187.56C431.93 187.56 425.47 213.44 417.4 223C409.58 232.26 397.33 228 393.09 216C388.85 204 381.29 176.69 381.29 176.69L390.57 169.59L406.57 200.68L413.8 179.49L431.93 187.56Z" fill="#FFBF9D"/>
<path d="M381.72 177.43L374.91 167.56C373.919 167.346 372.948 167.045 372.01 166.66C371.24 166.21 370.48 162.29 370.5 161.53C370.52 160.77 369.18 158.98 369.72 158.47C370.26 157.96 372.08 157.93 371.98 157.2C371.98 157.04 370.63 155.4 371.69 154.2C372.275 153.814 372.926 153.539 373.61 153.39L373.5 149.62C373.5 149.62 375.5 145.18 377.61 146.79C377.61 146.79 385.44 152.79 386.23 153.79C387.02 154.79 390.04 167.28 390.57 169.63" fill="#FFBF9D"/>
<path d="M390.57 169.61C390.559 169.387 390.526 169.166 390.47 168.95C390.36 168.47 390.23 167.85 390.06 167.07C389.7 165.43 389.15 163.07 388.41 160.16C388.03 158.7 387.62 157.16 387.09 155.41C386.96 154.99 386.82 154.56 386.64 154.12C386.434 153.672 386.117 153.283 385.72 152.99C385 152.36 384.25 151.74 383.48 151.11C381.93 149.86 380.28 148.56 378.57 147.23C378.138 146.846 377.653 146.526 377.13 146.28C376.824 146.207 376.506 146.207 376.2 146.28C375.894 146.353 375.61 146.497 375.37 146.7C374.477 147.477 373.764 148.439 373.28 149.52V149.58C373.28 149.95 373.28 150.34 373.28 150.73C373.28 151.61 373.28 152.49 373.36 153.35L373.54 153.11C373.068 153.224 372.606 153.378 372.16 153.57C371.911 153.673 371.684 153.823 371.49 154.01C371.318 154.212 371.188 154.446 371.11 154.7C370.982 155.199 371.025 155.727 371.23 156.2C371.313 156.426 371.417 156.643 371.54 156.85L371.71 157.14V157.21C371.715 157.233 371.715 157.257 371.71 157.28C371.71 157.36 371.51 157.48 371.32 157.55C371.13 157.62 370.92 157.69 370.71 157.76C370.493 157.818 370.279 157.888 370.07 157.97C369.808 158.046 369.579 158.208 369.42 158.43C369.316 158.686 369.316 158.974 369.42 159.23C369.48 159.446 369.557 159.656 369.65 159.86C369.82 160.26 370.01 160.64 370.15 161.01C370.221 161.178 370.262 161.358 370.27 161.54C370.274 161.755 370.294 161.968 370.33 162.18C370.39 162.59 370.46 162.99 370.55 163.39C370.706 164.161 370.916 164.919 371.18 165.66C371.307 166.047 371.511 166.404 371.78 166.71C372.107 166.921 372.464 167.08 372.84 167.18C373.53 167.39 374.21 167.56 374.84 167.71L374.73 167.64L379.73 174.8L381.13 176.74C381.285 176.974 381.459 177.195 381.65 177.4C381.522 177.151 381.378 176.911 381.22 176.68L379.9 174.68C378.71 172.91 377.04 170.44 374.99 167.42V167.36H375C374.36 167.2 373.69 167.02 373 166.81C372.68 166.719 372.374 166.584 372.09 166.41C371.875 166.147 371.712 165.845 371.61 165.52C371.355 164.796 371.154 164.054 371.01 163.3C370.93 162.91 370.86 162.52 370.8 162.12C370.8 161.93 370.8 161.72 370.8 161.54C370.791 161.307 370.744 161.077 370.66 160.86C370.51 160.45 370.32 160.07 370.16 159.68C370.073 159.497 370.002 159.306 369.95 159.11C369.896 158.961 369.896 158.799 369.95 158.65C370.065 158.53 370.21 158.444 370.37 158.4C370.569 158.321 370.773 158.255 370.98 158.2C371.19 158.13 371.41 158.07 371.63 157.98C371.905 157.895 372.135 157.704 372.27 157.45C372.307 157.368 372.324 157.279 372.32 157.19C372.318 157.127 372.3 157.065 372.27 157.01V156.93L372.1 156.64C371.993 156.45 371.899 156.253 371.82 156.05C371.659 155.675 371.624 155.257 371.72 154.86C371.773 154.668 371.869 154.49 372 154.34C372.151 154.208 372.323 154.103 372.51 154.03C372.931 153.849 373.366 153.702 373.81 153.59L373.99 153.54V153.35C373.99 152.49 373.94 151.62 373.91 150.74C373.91 150.35 373.91 149.95 373.91 149.59V149.7C374.355 148.691 375.013 147.79 375.84 147.06C376.018 146.896 376.233 146.778 376.466 146.717C376.7 146.656 376.945 146.654 377.18 146.71C377.646 146.939 378.08 147.228 378.47 147.57C380.19 148.9 381.84 150.19 383.39 151.43C384.17 152.05 384.92 152.66 385.63 153.27C385.989 153.525 386.276 153.87 386.46 154.27C386.63 154.68 386.77 155.11 386.91 155.52C387.44 157.2 387.91 158.79 388.27 160.23C389.02 163.1 389.64 165.43 390.07 167.1C390.28 167.87 390.44 168.49 390.56 168.96C390.541 169.176 390.544 169.394 390.57 169.61Z" fill="#FF9A6C"/>
<path d="M373.61 153.39C373.61 153.47 374.4 153.39 375.61 153.53C376.335 153.642 377.05 153.805 377.75 154.02C378.669 154.15 379.602 154.15 380.52 154.02C381.309 153.909 382.112 153.979 382.869 154.225C383.627 154.471 384.318 154.887 384.89 155.44C385.334 155.932 385.689 156.497 385.94 157.11C385.945 156.754 385.876 156.4 385.739 156.072C385.601 155.743 385.397 155.447 385.14 155.2C384.62 154.628 383.977 154.18 383.26 153.89C382.38 153.548 381.428 153.428 380.49 153.54C379.61 153.65 378.72 153.65 377.84 153.54C377.118 153.339 376.378 153.208 375.63 153.15C374.948 153.096 374.261 153.177 373.61 153.39Z" fill="#FF9A6C"/>
<path d="M376.38 153.18C376.49 153.24 376.81 152.78 376.77 152.13C376.73 151.48 376.36 151.07 376.26 151.13C376.16 151.19 376.26 151.63 376.26 152.13C376.26 152.63 376.25 153.13 376.38 153.18Z" fill="#FF9A6C"/>
<path d="M371.74 157.34C373.719 157.529 375.715 157.373 377.64 156.88C378.339 156.651 379.076 156.556 379.81 156.6C380.379 156.725 380.881 157.057 381.22 157.53C381.515 158.001 381.776 158.492 382 159C382.035 158.394 381.862 157.795 381.51 157.3C381.15 156.718 380.575 156.301 379.91 156.14C379.116 156.047 378.311 156.125 377.55 156.37C374.38 157.09 371.74 157.2 371.74 157.34Z" fill="#FF9A6C"/>
<path d="M370.7 160.9C371.177 161.011 371.673 161.011 372.15 160.9C373.04 160.8 374.24 160.49 375.54 160.23C376.141 160.096 376.755 160.036 377.37 160.05C377.848 160.058 378.31 160.227 378.68 160.53C379.012 160.836 379.239 161.238 379.33 161.68C379.33 161.68 379.42 161.55 379.41 161.28C379.369 160.899 379.196 160.545 378.92 160.28C378.515 159.881 377.978 159.642 377.41 159.61C376.74 159.564 376.066 159.614 375.41 159.76C374.07 160.02 372.91 160.38 372.05 160.56C371.59 160.627 371.137 160.741 370.7 160.9Z" fill="#FF9A6C"/>
<path d="M373 163.72C372.92 163.78 373.59 164.48 374.81 164.48L374.57 164.27C374.57 164.48 374.57 164.69 374.64 164.9C374.673 165.757 374.862 166.601 375.2 167.39C375.333 166.546 375.306 165.684 375.12 164.85L375.03 164.22V164H374.82C374.205 163.975 373.594 163.881 373 163.72Z" fill="#FF9A6C"/>
<path d="M421.71 161.35C421.71 161.35 434.94 164.55 434.91 182.1C434.88 199.65 430.91 208.31 430.91 208.31L406.52 195L412 181.37L421.71 161.35Z" fill="#455A64"/>
<path d="M430.91 208.31C430.735 208.259 430.567 208.185 430.41 208.09L428.99 207.37L423.79 204.63L406.4 195.26L406.2 195.16L406.28 194.95L407.59 191.53C409.15 187.48 410.59 183.62 411.99 180.11C412.67 178.36 413.31 176.69 413.92 175.11C414.452 173.642 415.098 172.218 415.85 170.85C416.855 168.803 418.37 167.05 420.25 165.76C420.778 165.43 421.36 165.196 421.97 165.07C422.125 165.037 422.282 165.017 422.44 165.01H422.61C421.81 165.176 421.048 165.488 420.36 165.93C418.556 167.25 417.115 169.004 416.17 171.03C415.452 172.393 414.833 173.807 414.32 175.26C413.73 176.83 413.1 178.5 412.43 180.26L408.07 191.7L406.76 195.12L406.64 194.8L424 204.33L429.12 207.21L430.49 208.01C430.641 208.094 430.782 208.195 430.91 208.31Z" fill="#263238"/>
</svg>
